<svg width="1659" height="607" viewBox="0 0 1659 607" fill="none" xmlns="http://www.w3.org/2000/svg">
<rect x="271.396" y="23.711" width="280" height="500" rx="36" transform="rotate(-4.84248 271.396 23.711)" fill="black"/>
<path d="M290.648 73.2627C288.969 53.4514 303.669 36.0306 323.48 34.3522L500.845 19.326C520.656 17.6476 538.077 32.3472 539.755 52.1585L573.353 448.738C575.031 468.549 560.332 485.97 540.52 487.648L363.156 502.675C343.345 504.353 325.924 489.653 324.245 469.842L290.648 73.2627Z" fill="#AFD5FF"/>
<ellipse cx="377.102" cy="274.445" rx="19.595" ry="58.289" transform="rotate(-44.3437 377.102 274.445)" fill="#DA9630"/>
<path d="M320.567 226.633C329.952 230.063 333.001 236.505 333.001 236.505C333.001 236.505 324.258 240.999 318.639 239.772C312.824 238.503 305.399 235.798 306.691 230.311C307.982 224.824 310.304 224.217 320.567 226.633Z" fill="#009F23"/>
<path d="M331.03 214.182C337.275 222.729 336.166 230.198 336.166 230.198C336.166 230.198 325.821 229.006 321.595 224.617C317.222 220.075 312.276 213.321 316.645 209.249C321.014 205.178 323.416 206.011 331.03 214.182Z" fill="#009F23"/>
<path d="M349.172 215.563C347.189 225.877 341.016 230.121 341.016 230.121C341.016 230.121 334.887 221.805 335.216 215.768C335.556 209.522 337.117 201.364 343.027 201.783C348.937 202.202 349.956 204.509 349.172 215.563Z" fill="#009F23"/>
<ellipse cx="507.5" cy="277.425" rx="34.5" ry="29.6125" fill="#FF4747"/>
<path d="M508.075 256.869C503.371 260.234 500.688 261.956 495.425 264.057C494.995 259.254 495.911 256.958 497.006 253.994C493.995 254.046 492.073 252.931 487.806 251.407C503.536 246.473 513.552 246.675 527.337 250.544C523.54 252.382 521.451 253.302 517.85 253.994C518.939 257.379 519.166 259.638 518.856 264.057C514.071 261.471 511.542 260.052 508.075 256.869Z" fill="#01AA4F"/>
<path d="M502.038 232C501.684 239.244 502.306 243.248 505.344 250.257L509.225 249.825C507.573 242.399 507.729 238.54 509.225 232H502.038Z" fill="#01AA4F"/>
<ellipse cx="384.5" cy="402.425" rx="34.5" ry="29.6125" fill="#FF4747"/>
<path d="M385.075 381.869C380.372 385.234 377.689 386.956 372.425 389.057C371.996 384.254 372.911 381.958 374.007 378.994C370.995 379.046 369.074 377.931 364.807 376.407C380.537 371.473 390.553 371.675 404.338 375.544C400.541 377.382 398.451 378.302 394.85 378.994C395.94 382.379 396.166 384.638 395.857 389.057C391.071 386.471 388.542 385.052 385.075 381.869Z" fill="#01AA4F"/>
<path d="M379.038 357C378.684 364.244 379.306 368.248 382.344 375.257L386.225 374.825C384.574 367.399 384.729 363.54 386.225 357H379.038Z" fill="#01AA4F"/>
<path d="M389.02 220L408.516 220.394L403.471 247.298L407.996 320.404L387 319.98L393.973 247.106L389.02 220Z" fill="#7A7A7A"/>
<path d="M351.818 25.3168L471.39 15.1868V15.1868C472.304 25.9789 464.297 35.4688 453.505 36.3831L373.015 43.2022C362.223 44.1165 352.733 36.1089 351.818 25.3168V25.3168Z" fill="black"/>
<ellipse cx="463.505" cy="111.618" rx="19.595" ry="58.289" transform="rotate(37.8823 463.505 111.618)" fill="#DA9630"/>
<path d="M503.23 49.1356C501.102 58.8982 495.131 62.7905 495.131 62.7905C495.131 62.7905 489.496 54.7363 489.951 49.0022C490.422 43.0691 492.098 35.3464 497.709 35.8842C503.321 36.422 504.236 38.6401 503.23 49.1356Z" fill="#009F23"/>
<path d="M516.982 57.8186C509.359 65.1622 501.809 65.0735 501.809 65.0735C501.809 65.0735 501.59 54.6627 505.367 49.8813C509.276 44.9339 515.299 39.1204 519.924 42.8984C524.549 46.6765 524.048 49.1686 516.982 57.8186Z" fill="#009F23"/>
<path d="M518.068 75.9804C507.581 75.4109 502.54 69.8689 502.54 69.8689C502.54 69.8689 509.951 62.6705 515.977 62.1801C522.212 61.6728 530.506 62.1154 530.89 68.0279C531.274 73.9404 529.126 75.2623 518.068 75.9804Z" fill="#009F23"/>
<ellipse cx="490.505" cy="405.618" rx="19.595" ry="58.289" transform="rotate(37.8823 490.505 405.618)" fill="#DA9630"/>
<path d="M530.23 343.136C528.102 352.898 522.131 356.791 522.131 356.791C522.131 356.791 516.496 348.736 516.951 343.002C517.422 337.069 519.098 329.347 524.709 329.884C530.321 330.422 531.236 332.64 530.23 343.136Z" fill="#009F23"/>
<path d="M543.982 351.819C536.359 359.162 528.809 359.074 528.809 359.074C528.809 359.074 528.59 348.663 532.367 343.881C536.276 338.934 542.299 333.121 546.924 336.899C551.549 340.677 551.048 343.169 543.982 351.819Z" fill="#009F23"/>
<path d="M545.068 369.981C534.581 369.411 529.54 363.869 529.54 363.869C529.54 363.869 536.951 356.671 542.977 356.18C549.212 355.673 557.506 356.116 557.89 362.028C558.274 367.941 556.126 369.262 545.068 369.981Z" fill="#009F23"/>
<rect x="369" y="126" width="60" height="97" rx="10" fill="#7A7A7A"/>
<rect x="404" y="101" width="15" height="88" rx="7.5" fill="#AFD5FF"/>
<rect x="379" y="101" width="15" height="88" rx="7.5" fill="#AFD5FF"/>
<path d="M467.083 170.185C468.867 148.56 480.619 129.122 497.901 116C497.401 163.5 497.469 201.988 497.401 245.5H470.901C465.782 216.356 464.979 195.686 467.083 170.185Z" fill="#7A7A7A"/>
<path d="M471 245.5L485 216L497.379 245.5L491 258L494 326.5H471.5L477 258L471 245.5Z" fill="#7A7A7A"/>
<ellipse cx="339.5" cy="94.4254" rx="34.5" ry="29.6125" fill="#FF4747"/>
<path d="M340.075 73.869C335.372 77.2338 332.689 78.9559 327.425 81.0565C326.996 76.2541 327.911 73.9582 329.007 70.9941C325.995 71.0463 324.074 69.9313 319.807 68.4066C335.537 63.4731 345.553 63.6749 359.338 67.5441C355.541 69.3818 353.451 70.302 349.85 70.9941C350.94 74.3791 351.166 76.6375 350.857 81.0565C346.071 78.4705 343.542 77.0515 340.075 73.869Z" fill="#01AA4F"/>
<path d="M334.038 49.0004C333.684 56.2441 334.306 60.248 337.344 67.2566L341.225 66.8254C339.574 59.3994 339.729 55.5403 341.225 49.0004H334.038Z" fill="#01AA4F"/>
<path d="M23.5911 291L864.156 377.461L840.288 425.917L840.433 520.243C840.503 566.525 800.491 602.689 754.452 597.953L89.2875 529.534C40.9618 524.563 6.91617 479.757 15.0757 431.866L28.552 352.77L23.5911 291Z" fill="#424242"/>
<rect x="786" y="442" width="168" height="61" fill="#424242"/>
<path d="M899 441.666C899 429.647 908.646 419.852 920.663 419.668L1388.5 412.5L1659 420V486L1388.5 470.5L932.019 534.379C914.575 536.821 899 523.274 899 505.659V441.666Z" fill="#424242"/>
</svg>
