<svg width="50" height="50" viewBox="0 0 50 50" fill="none" xmlns="http://www.w3.org/2000/svg">
<path fill-rule="evenodd" clip-rule="evenodd" d="M23.3922 12.5016C23.0031 8.98755 20.0156 6.25005 16.4 6.25005C12.5234 6.25005 9.375 9.40005 9.375 13.2813C9.375 17.1625 12.5234 20.3125 16.4 20.3125C16.5672 20.3125 16.7328 20.3063 16.8969 20.2954C16.8016 20.711 16.6656 21.1219 16.4797 21.5172C15.4984 23.6141 15.5828 24.9313 15.5828 26.5625C15.5828 30.9282 18.6063 34.6266 22.6594 35.6766V39.0625H20.7031C19.4094 39.0625 18.3594 40.1125 18.3594 41.4063C18.3594 42.6391 19.3125 43.65 20.5203 43.7422C20.5797 43.7563 29.2313 43.75 29.3547 43.75H29.3563C30.65 43.7485 31.6984 42.6985 31.6984 41.4063C31.6984 40.1125 30.6484 39.0625 29.3547 39.0625H27.3438V35.6782C31.3859 34.636 34.375 30.9641 34.375 26.5985C34.375 24.6251 34.25 23.775 33.5563 21.6125C32.3109 17.7438 33.4953 14.5938 34.1844 13.7985C34.4656 13.4735 34.4313 12.9797 34.1047 12.6969C33.9688 12.5782 33.8016 12.5157 33.6344 12.5063C33.6219 12.5032 33.6078 12.5016 33.5938 12.5016H29.1094L30.15 8.36099C30.2375 8.01255 30.5516 7.7688 30.9109 7.77036L39.8406 7.81255C40.2719 7.81411 40.6234 7.46567 40.625 7.03442C40.6266 6.60317 40.2781 6.25161 39.8469 6.25005C39.8469 6.25005 33.6188 6.22036 30.9188 6.20786C29.8406 6.20317 28.8984 6.93442 28.6344 7.97974L27.4969 12.5016H23.3922V12.5016ZM29.4172 40.6282C29.3969 40.6297 20.6297 40.6297 20.6188 40.6297C20.2281 40.6719 19.9219 41.0032 19.9219 41.4063C19.9219 41.8235 20.25 42.1657 20.6625 42.186L29.3547 42.1875C29.7859 42.1875 30.1359 41.8375 30.1359 41.4063C30.1359 40.9969 29.8188 40.6594 29.4172 40.6282ZM24.2219 35.9407V39.0625H25.7813V35.9407C25.5234 35.9625 25.2625 35.9735 25 35.9735C24.7375 35.9735 24.4781 35.9625 24.2219 35.9407V35.9407ZM28.7156 14.0641L26.7484 21.886C28.4781 21.8922 29.6 21.9125 30.4875 21.9344C30.9125 21.9454 31.25 22.2938 31.25 22.7172L31.2484 27.4797C31.1672 30.4016 28.4281 32.8125 24.9984 32.8125C21.5172 32.8125 18.7469 30.3282 18.7469 27.3454V24.236C18.7469 23.9141 18.9422 23.6266 19.2406 23.5094C19.2406 23.5094 22.7078 22.1516 25.1297 21.9188L27.1047 14.0641H17.725C17.9 14.4766 18.0719 14.961 18.2172 15.4985C18.7328 17.4063 18.9266 19.975 17.8953 22.1797C17.0438 23.9985 17.1453 25.1469 17.1453 26.5625C17.1453 30.8766 20.6859 34.411 25 34.411C29.3125 34.411 32.8125 30.911 32.8125 26.5985C32.8125 24.8141 32.6969 24.0454 32.0688 22.0907C30.9719 18.6813 31.5547 15.7485 32.2656 14.0641H28.7156V14.0641ZM20.3094 27.3454C20.3094 29.536 22.4406 31.25 24.9984 31.25C27.5188 31.25 29.6266 29.586 29.6859 27.4407L29.6875 23.4797C28.75 23.461 27.5406 23.4469 25.7813 23.4469C24.0797 23.4469 21.4063 24.3672 20.3094 24.7735V27.3454V27.3454ZM21.8172 12.5016C21.4391 9.85161 19.1531 7.81255 16.4 7.81255C13.3859 7.81255 10.9375 10.2625 10.9375 13.2813C10.9375 16.3 13.3859 18.75 16.4 18.75C16.6313 18.75 16.8578 18.736 17.0813 18.7079C17.0844 18.4438 17.075 18.1797 17.0563 17.9219C16.8422 17.9516 16.6234 17.9672 16.4016 17.9672C13.8172 17.9672 11.7188 15.8672 11.7188 13.2782C11.7188 10.6907 13.8172 8.59067 16.4016 8.59067C18.7203 8.59067 20.6531 10.2829 21.0234 12.5016H21.8172V12.5016ZM19.4281 12.5016C19.0828 11.1516 17.8563 10.1532 16.4016 10.1532C14.6797 10.1532 13.2813 11.5532 13.2813 13.2782C13.2813 15.0032 14.6797 16.4047 16.4016 16.4047C16.5453 16.4047 16.6859 16.3954 16.825 16.3766C16.7891 16.2141 16.75 16.0579 16.7094 15.9047C16.4344 14.8891 16.0781 14.0985 15.8156 13.7954C15.5328 13.4688 15.5688 12.975 15.8953 12.6922C16.0406 12.5672 16.2188 12.5047 16.3984 12.5016H19.4281V12.5016Z" fill="#335500"/>
</svg>
