<?xml version="1.0" encoding="iso-8859-1"?>
<!-- Generator: Adobe Illustrator 16.0.0, SVG Export Plug-In . SVG Version: 6.00 Build 0)  -->
<!DOCTYPE svg PUBLIC "-//W3C//DTD SVG 1.1//EN" "http://www.w3.org/Graphics/SVG/1.1/DTD/svg11.dtd">
<svg version="1.1" id="Capa_1" xmlns="http://www.w3.org/2000/svg" xmlns:xlink="http://www.w3.org/1999/xlink" x="0px" y="0px" fill="#ffffff"
	 width="950.3px" height="950.3px" viewBox="0 0 950.3 950.3" style="enable-background:new 0 0 950.3 950.3;" xml:space="preserve"
	>
<g>
	<path d="M79.7,534.601l-0.8,376c0,21.899,18.2,39.6,40,39.6H396c21.801,0,39.5-17.7,39.5-39.6L435.6,534.5
		c0-94.5-49.7-174.2-118.7-204.3V74.3c13-5.9,21.6-18.2,21.6-34.7c0-21.8-15.699-39.6-35-39.6h-26.2h-39.6h-22.9
		c-19.4,0-35.1,17.7-35.1,39.6c0,14.9,10,30.1,21.8,34.6l-0.3,256C131.2,357.9,79.7,439.8,79.7,534.601z M363.5,515.2
		c5.7,0,10.4,4.6,10.4,10.4v296.3c0,5.7-4.6,10.399-10.4,10.399H152.3c-5.7,0-10.4-4.6-10.4-10.399v-296.3c0-5.7,4.6-10.4,10.4-10.4
		H363.5z"/>
	<path d="M618.5,79.1L594,334.4C523.7,367.6,475.3,444.7,475.3,534.601l0.199,376.1c0,21.9,19.101,39.6,43.5,39.6h307.9
		c24.4,0,44.5-17.699,44.5-39.6l-0.3-376.1c0-88.9-48.9-165.101-118.7-198.9L722.8,79.2h0.8c21.6,0,39.1-17.6,39.1-39.5
		c0-21.8-17.5-39.5-39.1-39.5h-101C601,0.2,583.5,17.9,583.5,39.8C583.5,60.3,598.8,77,618.5,79.1V79c1.301,0.1,2.7,0.3,4.101,0.3
		C621.2,79.2,619.8,79.2,618.5,79.1z M791.9,871.2H554.3v-79h237.6V871.2z M671.8,396.7c60.3,0,109.8,51.5,118.3,118.5h-234
		C564.4,448.2,612.9,396.7,671.8,396.7z"/>
</g>
<g>
</g>
<g>
</g>
<g>
</g>
<g>
</g>
<g>
</g>
<g>
</g>
<g>
</g>
<g>
</g>
<g>
</g>
<g>
</g>
<g>
</g>
<g>
</g>
<g>
</g>
<g>
</g>
<g>
</g>
</svg>
