<svg width="40" height="42" viewBox="0 0 40 42" fill="none" xmlns="http://www.w3.org/2000/svg">
<path d="M16.0249 6.12348C16.0249 5.44445 15.9615 4.73189 16.1335 4.06124C16.4052 3.01336 17.1566 2.13314 18.1888 1.63854C20.2531 0.632568 22.9603 1.59662 23.739 3.63371C24.0468 4.43848 23.9834 5.27679 23.9834 6.12348C23.9834 6.93663 25.3415 6.93663 25.3415 6.12348C25.3415 5.20972 25.3959 4.28759 25.088 3.40736C24.6444 2.1499 23.6484 1.05172 22.3537 0.481673C19.6737 -0.700339 16.3508 0.36431 15.1376 2.896C14.6396 3.94388 14.6668 5.00853 14.6668 6.12348C14.6668 6.93663 16.0249 6.93663 16.0249 6.12348Z" fill="#335500"/>
<path d="M18.5872 5.70446C18.5872 5.34399 18.5328 4.9416 18.6324 4.58951C18.7954 4.01946 19.3568 3.61708 19.9996 3.61708C20.6153 3.61708 21.1676 3.99432 21.3486 4.53921C21.4754 4.89969 21.412 5.3356 21.412 5.70446C21.412 6.51762 22.7701 6.51762 22.7701 5.70446C22.7701 5.03381 22.8064 4.37155 22.4623 3.75121C22.0005 2.90452 21.0227 2.35962 19.9996 2.35962C18.9855 2.35962 17.9896 2.90452 17.5369 3.75121C17.2019 4.37994 17.229 5.03381 17.229 5.70446C17.229 6.51762 18.5872 6.51762 18.5872 5.70446Z" fill="#335500"/>
<path d="M38.6419 23.4933C38.6238 27.0561 37.4558 30.5351 35.2376 33.4524C33.0465 36.3278 29.8685 38.5828 26.2831 39.7564C22.6705 40.9384 18.7048 41.0726 15.0198 40.1337C11.2986 39.1864 7.98479 37.1493 5.54019 34.3913C0.632876 28.8668 0.0171985 20.7772 3.98288 14.6491C5.94762 11.6061 8.92641 9.16662 12.4213 7.70797C15.8799 6.26608 19.8637 5.87207 23.585 6.54272C31.2085 7.92593 37.2204 13.727 38.4336 20.8275C38.5785 21.7161 38.6419 22.6047 38.6419 23.4933C38.6419 24.3064 40 24.3064 40 23.4933C39.9819 19.679 38.7324 15.8982 36.324 12.7881C33.9338 9.69475 30.5747 7.32234 26.7086 6.03974C22.8697 4.76551 18.5871 4.63976 14.6576 5.63735C10.7101 6.64332 7.12465 8.81453 4.53518 11.7486C1.92761 14.7078 0.361253 18.3293 0.0534148 22.1352C-0.24537 25.8992 0.714362 29.7303 2.80585 32.9661C4.89735 36.202 8.07533 38.8511 11.7966 40.3852C15.5993 41.9528 19.8547 42.3887 23.9381 41.651C32.0234 40.184 38.5332 33.905 39.7555 26.3519C39.9095 25.4046 39.9909 24.4489 40 23.4933C40 22.6885 38.6419 22.6885 38.6419 23.4933Z" fill="#335500"/>
<path d="M39.3211 24.122C40.1993 24.122 40.1993 22.8645 39.3211 22.8645C38.4519 22.8645 38.4428 24.122 39.3211 24.122Z" fill="#335500"/>
<path d="M27.7136 15.848C26.2559 18.9916 24.7982 22.1353 23.3496 25.2873C23.2137 25.5807 23.0779 25.8657 22.9512 26.1591C22.915 26.2262 22.7248 26.5196 22.752 26.5951C22.752 26.5867 23.1051 26.4022 22.924 26.419C22.761 26.4358 22.5528 26.5615 22.4079 26.6202C21.8828 26.8298 21.3577 27.0394 20.8416 27.2405C19.5287 27.7603 18.2159 28.2801 16.9121 28.7998C15.0651 29.5291 13.218 30.2668 11.371 30.9962C11.6788 31.2812 11.9867 31.5662 12.3036 31.8596C13.7432 28.7076 15.2009 25.5639 16.6495 22.4203C16.7853 22.1269 16.9212 21.8419 17.0479 21.5484C17.0841 21.4814 17.2743 21.188 17.2471 21.1125C17.2471 21.1209 16.894 21.3053 17.0751 21.2886C17.238 21.2718 17.4463 21.1461 17.5912 21.0874C18.1163 20.8778 18.6414 20.6682 19.1575 20.467C20.4704 19.9473 21.7832 19.4275 23.087 18.9078C24.934 18.1784 26.7811 17.4407 28.6281 16.7114C28.9721 16.5773 29.0355 16.1162 28.8725 15.848C28.6734 15.521 28.275 15.4875 27.94 15.6216C24.9974 16.7869 22.0639 17.9521 19.1213 19.1174C18.6052 19.3185 18.0891 19.5281 17.564 19.7293C17.1656 19.8886 16.731 20.0143 16.3598 20.2072C15.9886 20.4 15.8618 20.9029 15.7079 21.2467C14.8568 23.0825 14.0148 24.9184 13.1637 26.7459C12.4756 28.2298 11.7875 29.7219 11.0994 31.2057C10.8187 31.8009 11.3801 32.3207 12.0319 32.0692C14.9745 30.904 17.908 29.7387 20.8506 28.5735C21.3667 28.3639 21.8828 28.1627 22.4079 27.9531C22.8063 27.7938 23.2409 27.6681 23.6121 27.4753C23.9833 27.2825 24.1101 26.7795 24.264 26.4358C25.1151 24.5999 25.9571 22.7724 26.8082 20.9365C27.4963 19.4527 28.1844 17.9605 28.8725 16.4767C29.0174 16.1581 28.9721 15.806 28.6281 15.6132C28.3565 15.4623 27.8585 15.5378 27.7136 15.848Z" fill="#335500"/>
<path d="M5.07848 22.7138C6.10159 22.7138 7.11565 22.7138 8.13876 22.7138C7.9124 22.5042 7.68605 22.2946 7.4597 22.085C7.4597 23.0239 7.4597 23.9628 7.4597 24.9017C7.68605 24.6922 7.9124 24.4826 8.13876 24.273C7.11565 24.273 6.10159 24.273 5.07848 24.273C4.20024 24.273 4.20024 25.5305 5.07848 25.5305C6.10159 25.5305 7.11565 25.5305 8.13876 25.5305C8.50997 25.5305 8.81781 25.2454 8.81781 24.9017C8.81781 23.9628 8.81781 23.0239 8.81781 22.085C8.81781 21.7413 8.50997 21.4563 8.13876 21.4563C7.11565 21.4563 6.10159 21.4563 5.07848 21.4563C4.20024 21.4563 4.20024 22.7138 5.07848 22.7138Z" fill="#335500"/>
<path d="M34.9207 24.273C33.8976 24.273 32.8836 24.273 31.8605 24.273C32.0868 24.4826 32.3132 24.6922 32.5395 24.9017C32.5395 23.9628 32.5395 23.0239 32.5395 22.085C32.3132 22.2946 32.0868 22.5042 31.8605 22.7138C32.8836 22.7138 33.8976 22.7138 34.9207 22.7138C35.799 22.7138 35.799 21.4563 34.9207 21.4563C33.8976 21.4563 32.8836 21.4563 31.8605 21.4563C31.4892 21.4563 31.1814 21.7413 31.1814 22.085C31.1814 23.0239 31.1814 23.9628 31.1814 24.9017C31.1814 25.2454 31.4892 25.5305 31.8605 25.5305C32.8836 25.5305 33.8976 25.5305 34.9207 25.5305C35.799 25.5305 35.799 24.273 34.9207 24.273Z" fill="#335500"/>
<path d="M20.8415 9.67774C20.8415 10.5496 20.8415 11.413 20.8415 12.2849C21.0678 12.0753 21.2942 11.8657 21.5206 11.6561C20.5065 11.6561 19.4924 11.6561 18.4784 11.6561C18.7047 11.8657 18.9311 12.0753 19.1574 12.2849C19.1574 11.413 19.1574 10.5496 19.1574 9.67774C19.1574 8.86458 17.7993 8.86458 17.7993 9.67774C17.7993 10.5496 17.7993 11.413 17.7993 12.2849C17.7993 12.6286 18.1072 12.9136 18.4784 12.9136C19.4924 12.9136 20.5065 12.9136 21.5206 12.9136C21.8918 12.9136 22.1996 12.6286 22.1996 12.2849C22.1996 11.413 22.1996 10.5496 22.1996 9.67774C22.1996 8.86458 20.8415 8.86458 20.8415 9.67774Z" fill="#335500"/>
<path d="M22.1996 37.317C22.1996 36.3445 22.1996 35.3805 22.1996 34.408C22.1996 34.0643 21.8918 33.7793 21.5206 33.7793C20.5065 33.7793 19.4924 33.7793 18.4784 33.7793C18.1072 33.7793 17.7993 34.0643 17.7993 34.408C17.7993 35.3805 17.7993 36.3445 17.7993 37.317C17.7993 38.1301 19.1574 38.1301 19.1574 37.317C19.1574 36.3445 19.1574 35.3805 19.1574 34.408C18.9311 34.6176 18.7047 34.8272 18.4784 35.0368C19.4924 35.0368 20.5065 35.0368 21.5206 35.0368C21.2942 34.8272 21.0678 34.6176 20.8415 34.408C20.8415 35.3805 20.8415 36.3445 20.8415 37.317C20.8415 38.1217 22.1996 38.1217 22.1996 37.317Z" fill="#335500"/>
<path d="M19.9996 36.7551C14.0692 36.73 8.58241 33.2342 6.54524 28.0535C4.48091 22.7805 6.27362 16.8034 10.9274 13.2322C15.545 9.69458 22.2903 9.27543 27.4058 12.1508C32.4942 15.0094 35.2286 20.6764 34.0425 26.0919C32.8564 31.4989 28.0758 35.724 22.1997 36.5958C21.4754 36.7132 20.733 36.7551 19.9996 36.7551C19.1304 36.7551 19.1214 38.0126 19.9996 38.0126C26.5276 37.9874 32.449 34.1564 34.7215 28.4894C37.0122 22.7973 35.0475 16.1579 29.9862 12.3101C24.8979 8.44551 17.555 7.89222 11.9053 11.0694C6.27362 14.2298 3.33104 20.4584 4.64388 26.4356C5.92051 32.2618 11.2081 36.9479 17.5641 37.8365C18.3699 37.9539 19.1847 38.0126 19.9996 38.0126C20.8778 38.0126 20.8778 36.7551 19.9996 36.7551Z" fill="#335500"/>
</svg>
