<svg width="114" height="61" viewBox="0 0 114 61" fill="none" xmlns="http://www.w3.org/2000/svg">
<path d="M54.3964 48.7414C26.1467 49.9456 17.7455 3.37881 61.1651 5.06097" stroke="#38550F" stroke-width="6"/>
<path d="M61.854 48.8397C84.9404 48.9889 104.565 34.0527 108.555 29.7937C92.0094 18.5514 72.0678 2.68331 64.8469 5.44357" stroke="#38550F" stroke-width="6"/>
<path d="M5.32112 2.44879C29.2727 44.8549 86.8216 20.4055 94.3038 26.3911" stroke="#38550F" stroke-width="6"/>
<circle r="0.923037" transform="matrix(0.998842 0.0481191 0.0481191 -0.998842 44.8641 24.365)" fill="#38550F"/>
<path d="M58.1532 24.3652C58.1777 23.856 57.7848 23.4234 57.2756 23.3988C56.7664 23.3743 56.3337 23.7672 56.3092 24.2764C56.2847 24.7856 56.6776 25.2182 57.1868 25.2428C57.696 25.2673 58.1286 24.8744 58.1532 24.3652Z" fill="#38550F"/>
<circle r="0.923037" transform="matrix(0.998842 0.0481191 0.0481191 -0.998842 65.8141 24.365)" fill="#38550F"/>
<circle r="0.923037" transform="matrix(0.998842 0.0481191 0.0481191 -0.998842 80.9664 22.9664)" fill="#38550F"/>
<path d="M68.5007 37.5915L67.6408 37.9056C67.289 37.8923 68.8671 35.3529 67.3282 29.4035C67.3936 27.6733 67.2935 27.6631 67.7791 28.7275C69.468 32.43 68.9773 37.9561 68.5007 37.5915Z" fill="#38550F" stroke="#38550F" stroke-width="6"/>
<path d="M44.3752 28.4744L45.5206 28.1187C45.9858 28.1466 43.2255 28.1199 45.1234 35.4495C44.9965 37.5641 45.1287 37.5799 44.5108 36.2616C42.3619 31.6759 43.7528 28.0126 44.3752 28.4744Z" fill="#38550F" stroke="#38550F" stroke-width="6"/>
<path d="M58.4624 41.7498L57.0338 42.0627C56.4663 41.9901 59.3222 38.6369 57.5421 29.9799C57.8543 27.5407 57.6937 27.5109 58.3523 29.0919C60.6431 34.5914 59.1901 42.3387 58.4624 41.7498Z" fill="#38550F" stroke="#38550F" stroke-width="6"/>
<path d="M80.6364 26.7203L81.9374 26.449C82.4738 26.4656 80.1447 28.7309 82.6666 34.1071C82.6184 35.6639 82.7711 35.6744 81.9996 34.7098C79.3158 31.3543 79.8992 26.3858 80.6364 26.7203Z" fill="#38550F" stroke="#38550F" stroke-width="6"/>
</svg>
