<svg width="152" height="38" viewBox="0 0 152 38" fill="none" xmlns="http://www.w3.org/2000/svg">
<path d="M5.064 33.448H16.776V37H0.695999V3.544H5.064V33.448Z" fill="#07739E"/>
<path d="M45.4147 22.84C45.4147 23.672 45.3668 24.552 45.2708 25.48H24.2467C24.4067 28.072 25.2867 30.104 26.8867 31.576C28.5187 33.016 30.4867 33.736 32.7907 33.736C34.6787 33.736 36.2468 33.304 37.4948 32.44C38.7748 31.544 39.6708 30.36 40.1828 28.888H44.8868C44.1828 31.416 42.7748 33.48 40.6628 35.08C38.5508 36.648 35.9267 37.432 32.7907 37.432C30.2947 37.432 28.0547 36.872 26.0707 35.752C24.1187 34.632 22.5827 33.048 21.4627 31C20.3427 28.92 19.7827 26.52 19.7827 23.8C19.7827 21.08 20.3267 18.696 21.4147 16.648C22.5027 14.6 24.0227 13.032 25.9747 11.944C27.9587 10.824 30.2307 10.264 32.7907 10.264C35.2867 10.264 37.4947 10.808 39.4147 11.896C41.3347 12.984 42.8067 14.488 43.8307 16.408C44.8867 18.296 45.4147 20.44 45.4147 22.84ZM40.9028 21.928C40.9028 20.264 40.5348 18.84 39.7988 17.656C39.0628 16.44 38.0547 15.528 36.7747 14.92C35.5267 14.28 34.1347 13.96 32.5987 13.96C30.3907 13.96 28.5027 14.664 26.9347 16.072C25.3987 17.48 24.5187 19.432 24.2947 21.928H40.9028Z" fill="#07739E"/>
<path d="M52.5724 37.288C51.7404 37.288 51.0364 37 50.4604 36.424C49.8844 35.848 49.5964 35.144 49.5964 34.312C49.5964 33.48 49.8844 32.776 50.4604 32.2C51.0364 31.624 51.7404 31.336 52.5724 31.336C53.3724 31.336 54.0444 31.624 54.5884 32.2C55.1644 32.776 55.4524 33.48 55.4524 34.312C55.4524 35.144 55.1644 35.848 54.5884 36.424C54.0444 37 53.3724 37.288 52.5724 37.288Z" fill="#07739E"/>
<path d="M71.9625 14.296H66.4425V37H62.0745V14.296H58.6665V10.696H62.0745V8.82401C62.0745 5.88 62.8265 3.736 64.3305 2.392C65.8665 1.016 68.3145 0.328003 71.6745 0.328003V3.976C69.7545 3.976 68.3945 4.36 67.5945 5.128C66.8265 5.864 66.4425 7.096 66.4425 8.82401V10.696H71.9625V14.296Z" fill="#07739E"/>
<path d="M88.5274 37.432C86.0634 37.432 83.8234 36.872 81.8074 35.752C79.8234 34.632 78.2554 33.048 77.1034 31C75.9834 28.92 75.4234 26.52 75.4234 23.8C75.4234 21.112 75.9994 18.744 77.1514 16.696C78.3354 14.616 79.9354 13.032 81.9514 11.944C83.9674 10.824 86.2234 10.264 88.7194 10.264C91.2154 10.264 93.4714 10.824 95.4874 11.944C97.5034 13.032 99.0874 14.6 100.239 16.648C101.423 18.696 102.015 21.08 102.015 23.8C102.015 26.52 101.407 28.92 100.191 31C99.0074 33.048 97.3914 34.632 95.3434 35.752C93.2954 36.872 91.0234 37.432 88.5274 37.432ZM88.5274 33.592C90.0954 33.592 91.5674 33.224 92.9434 32.488C94.3194 31.752 95.4234 30.648 96.2554 29.176C97.1194 27.704 97.5514 25.912 97.5514 23.8C97.5514 21.688 97.1354 19.896 96.3034 18.424C95.4714 16.952 94.3834 15.864 93.0394 15.16C91.6954 14.424 90.2394 14.056 88.6714 14.056C87.0714 14.056 85.5994 14.424 84.2554 15.16C82.9434 15.864 81.8874 16.952 81.0874 18.424C80.2874 19.896 79.8874 21.688 79.8874 23.8C79.8874 25.944 80.2714 27.752 81.0394 29.224C81.8394 30.696 82.8954 31.8 84.2074 32.536C85.5194 33.24 86.9594 33.592 88.5274 33.592Z" fill="#07739E"/>
<path d="M131.087 10.696V37H126.719V33.112C125.887 34.456 124.719 35.512 123.215 36.28C121.743 37.016 120.111 37.384 118.319 37.384C116.271 37.384 114.431 36.968 112.799 36.136C111.167 35.272 109.87 33.992 108.91 32.296C107.982 30.6 107.519 28.536 107.519 26.104V10.696H111.839V25.528C111.839 28.12 112.495 30.12 113.807 31.528C115.119 32.904 116.911 33.592 119.183 33.592C121.519 33.592 123.358 32.872 124.702 31.432C126.047 29.992 126.719 27.896 126.719 25.144V10.696H131.087Z" fill="#07739E"/>
<path d="M142.83 14.968C143.598 13.464 144.686 12.296 146.094 11.464C147.534 10.632 149.278 10.216 151.326 10.216V14.728H150.174C145.278 14.728 142.83 17.384 142.83 22.696V37H138.462V10.696H142.83V14.968Z" fill="#07739E"/>
<path d="M56 34.5C56 36.433 54.433 38 52.5 38C50.567 38 49 36.433 49 34.5C49 32.567 50.567 31 52.5 31C54.433 31 56 32.567 56 34.5Z" fill="#AEC70C"/>
</svg>