<svg width="181" height="57" viewBox="0 0 181 57" fill="none" xmlns="http://www.w3.org/2000/svg">
<path d="M22.8203 5.64844C24.4453 5.64844 25.8672 5.85938 27.0859 6.28125C28.3203 6.70312 29.3516 7.28906 30.1797 8.03906C31.0078 8.77344 31.625 9.64062 32.0312 10.6406C32.4531 11.625 32.6641 12.6797 32.6641 13.8047C32.6641 15.0391 32.4531 16.2266 32.0312 17.3672C31.625 18.4922 31.0547 19.5625 30.3203 20.5781C29.6016 21.5938 28.75 22.5469 27.7656 23.4375C26.7812 24.3281 25.7266 25.1406 24.6016 25.875C23.4766 26.6094 22.3047 27.2656 21.0859 27.8438C19.8828 28.4219 18.6875 28.9062 17.5 29.2969C18.3438 30.0469 19.1094 30.9219 19.7969 31.9219C20.4844 32.9062 21.1406 33.9609 21.7656 35.0859C22.3906 36.1953 23.0078 37.3359 23.6172 38.5078C24.2266 39.6797 24.8672 40.8203 25.5391 41.9297C26.2109 43.0234 26.9375 44.0625 27.7188 45.0469C28.5156 46.0312 29.4141 46.8906 30.4141 47.625C31.4297 48.375 32.5625 48.9609 33.8125 49.3828C35.0625 49.8203 36.4922 50.0391 38.1016 50.0391L38.1953 51C37.9922 51.0469 37.7578 51.0859 37.4922 51.1172C37.2734 51.1484 37 51.1719 36.6719 51.1875C36.3438 51.2188 35.9688 51.2344 35.5469 51.2344C33.5156 51.2344 31.7422 51 30.2266 50.5312C28.7109 50.0781 27.3906 49.4531 26.2656 48.6562C25.1562 47.875 24.2109 46.9609 23.4297 45.9141C22.6484 44.8828 21.9609 43.7891 21.3672 42.6328C20.7891 41.4609 20.2812 40.2734 19.8438 39.0703C19.4062 37.8516 18.9688 36.6797 18.5312 35.5547C18.1094 34.4141 17.6562 33.3594 17.1719 32.3906C16.7031 31.4062 16.1406 30.5703 15.4844 29.8828C15.1719 29.9609 14.8594 30.0234 14.5469 30.0703C14.25 30.1172 13.9531 30.1641 13.6562 30.2109C13.6406 31.3359 13.6172 32.3125 13.5859 33.1406C13.5703 33.9531 13.5469 34.6719 13.5156 35.2969C13.4844 35.9062 13.4453 36.4453 13.3984 36.9141C13.3516 37.3828 13.2969 37.8359 13.2344 38.2734C13.0625 39.4922 12.8125 40.5312 12.4844 41.3906C12.1562 42.2344 11.7578 42.9297 11.2891 43.4766C10.8203 44.0078 10.2812 44.3984 9.67188 44.6484C9.07812 44.8828 8.42188 45 7.70312 45C6.6875 45 5.73438 44.7031 4.84375 44.1094C3.96875 43.5156 3.21094 42.6328 2.57031 41.4609C1.92969 40.2891 1.42188 38.8359 1.04688 37.1016C0.6875 35.3672 0.507812 33.3594 0.507812 31.0781C0.507812 28.6875 0.765625 26.3984 1.28125 24.2109C1.79688 22.0078 2.52344 19.9688 3.46094 18.0938C4.41406 16.2031 5.5625 14.4922 6.90625 12.9609C8.25 11.4297 9.74219 10.125 11.3828 9.04688C13.0391 7.95312 14.8281 7.11719 16.75 6.53906C18.6875 5.94531 20.7109 5.64844 22.8203 5.64844ZM8.42969 28.4297C8.42969 28.0234 8.58594 27.6797 8.89844 27.3984C9.22656 27.1016 9.66406 26.9062 10.2109 26.8125C10.1797 25.2812 10.1406 23.8828 10.0938 22.6172C10.0469 21.3516 10.0078 20.2578 9.97656 19.3359C9.92969 18.2578 9.89062 17.2891 9.85938 16.4297C9.96875 16.3359 10.0938 16.2578 10.2344 16.1953C10.3594 16.1328 10.5078 16.0781 10.6797 16.0312C10.8516 15.9844 11.0625 15.9609 11.3125 15.9609C12.0312 15.9609 12.6094 16.0938 13.0469 16.3594C13.4844 16.6094 13.7031 17.0391 13.7031 17.6484C13.7031 19.4922 13.7031 21.2031 13.7031 22.7812C13.7031 24.3438 13.6875 25.8125 13.6562 27.1875C14.1562 27.3281 14.6328 27.5078 15.0859 27.7266C15.5547 27.9297 15.9922 28.1641 16.3984 28.4297C17.8359 28.0391 19.2812 27.4766 20.7344 26.7422C22.1875 26.0078 23.4922 25.0781 24.6484 23.9531C25.8203 22.8125 26.7656 21.4688 27.4844 19.9219C28.2188 18.3594 28.5859 16.5625 28.5859 14.5312C28.5859 13.2031 28.3984 12.0703 28.0234 11.1328C27.6641 10.1953 27.1719 9.42969 26.5469 8.83594C25.9219 8.22656 25.1797 7.78125 24.3203 7.5C23.4766 7.21875 22.5781 7.07812 21.625 7.07812C20.0312 7.07812 18.4609 7.3125 16.9141 7.78125C15.3828 8.23437 13.9297 8.92969 12.5547 9.86719C11.1953 10.8047 9.9375 11.9922 8.78125 13.4297C7.64062 14.8672 6.64844 16.5625 5.80469 18.5156C4.97656 20.4688 4.32812 22.6875 3.85938 25.1719C3.39062 27.6562 3.15625 30.4219 3.15625 33.4688C3.15625 34.7969 3.21875 36.0859 3.34375 37.3359C3.48438 38.5703 3.71094 39.6719 4.02344 40.6406C4.33594 41.5938 4.75 42.3594 5.26562 42.9375C5.79688 43.5156 6.45312 43.8047 7.23438 43.8047C7.65625 43.8047 8.05469 43.7188 8.42969 43.5469C8.80469 43.375 9.13281 43.0234 9.41406 42.4922C9.69531 41.9453 9.92188 41.1719 10.0938 40.1719C10.2656 39.1562 10.3516 37.8047 10.3516 36.1172C10.3516 35.5078 10.3516 34.9688 10.3516 34.5C10.3516 34.0156 10.3516 33.5547 10.3516 33.1172C10.3516 32.6641 10.3438 32.2109 10.3281 31.7578C10.3281 31.3047 10.3203 30.8047 10.3047 30.2578C9.71094 30.1172 9.25 29.8906 8.92188 29.5781C8.59375 29.2656 8.42969 28.8828 8.42969 28.4297ZM9.625 28.4297C9.625 28.5859 9.64844 28.7188 9.69531 28.8281C9.75781 28.9375 9.94531 29.0312 10.2578 29.1094V28.0078C9.83594 28.1016 9.625 28.2422 9.625 28.4297ZM13.6562 29.0156C13.7812 29.0156 13.8984 29.0078 14.0078 28.9922C14.1328 28.9766 14.2578 28.9531 14.3828 28.9219C14.2578 28.8438 14.1328 28.7734 14.0078 28.7109C13.8984 28.6484 13.7812 28.5938 13.6562 28.5469V29.0156ZM38.3828 42.3516C38.9297 42.3516 39.4844 42.2109 40.0469 41.9297C40.625 41.6484 41.2031 41.2109 41.7812 40.6172C42.375 40.0234 42.9844 39.2578 43.6094 38.3203C44.2344 37.3672 44.875 36.2344 45.5312 34.9219L45.7656 34.4297L46.7266 35.1562L46.4922 35.6484C45.6484 37.3203 44.8047 38.75 43.9609 39.9375C43.1328 41.125 42.3125 42.0938 41.5 42.8438C40.7031 43.5938 39.9141 44.1406 39.1328 44.4844C38.3516 44.8281 37.6016 45 36.8828 45C35.8672 45 34.9609 44.7891 34.1641 44.3672C33.3672 43.9453 32.6953 43.375 32.1484 42.6562C31.6016 41.9219 31.1875 41.0781 30.9062 40.125C30.6094 39.1562 30.4609 38.1406 30.4609 37.0781C30.4609 35.3906 30.6953 33.8594 31.1641 32.4844C31.6172 31.0938 32.2266 29.9062 32.9922 28.9219C33.7734 27.9375 34.6562 27.1719 35.6406 26.625C36.625 26.0781 37.6484 25.8047 38.7109 25.8047C39.7891 25.8047 40.6094 26.0781 41.1719 26.625C41.75 27.1719 42.0391 27.8594 42.0391 28.6875C42.0391 29.4844 41.8125 30.2344 41.3594 30.9375C40.9062 31.625 40.2891 32.3047 39.5078 32.9766C38.7422 33.6328 37.8516 34.2891 36.8359 34.9453C35.8203 35.5859 34.75 36.25 33.625 36.9375C33.7344 37.75 33.9219 38.4922 34.1875 39.1641C34.4531 39.8203 34.7891 40.3906 35.1953 40.875C35.6016 41.3438 36.0703 41.7109 36.6016 41.9766C37.1328 42.2266 37.7266 42.3516 38.3828 42.3516ZM39.1094 29.3906C39.1094 28.7656 38.9375 28.2734 38.5938 27.9141C38.2656 27.5547 37.8594 27.375 37.375 27.375C36.9688 27.375 36.5391 27.5234 36.0859 27.8203C35.6328 28.1016 35.2188 28.5625 34.8438 29.2031C34.4688 29.8281 34.1562 30.6328 33.9062 31.6172C33.6562 32.6016 33.5312 33.7969 33.5312 35.2031V35.7422C34.0625 35.4609 34.6484 35.0938 35.2891 34.6406C35.9453 34.1719 36.5547 33.6562 37.1172 33.0938C37.6797 32.5312 38.1484 31.9375 38.5234 31.3125C38.9141 30.6719 39.1094 30.0312 39.1094 29.3906ZM53.6875 31.6172C53.875 31.3203 54.0312 30.9531 54.1562 30.5156C54.2969 30.0781 54.3672 29.6406 54.3672 29.2031C54.3672 28.6719 54.2344 28.2109 53.9688 27.8203C53.7031 27.4297 53.2266 27.2344 52.5391 27.2344C52.0859 27.2344 51.625 27.3984 51.1562 27.7266C50.6875 28.0547 50.25 28.5469 49.8438 29.2031C49.4531 29.8594 49.1328 30.6875 48.8828 31.6875C48.6328 32.6875 48.5078 33.8594 48.5078 35.2031C48.5078 36.2656 48.6172 37.2344 48.8359 38.1094C49.0547 38.9844 49.375 39.7344 49.7969 40.3594C50.2188 40.9844 50.7266 41.4766 51.3203 41.8359C51.9297 42.1797 52.6094 42.3516 53.3594 42.3516C53.9062 42.3516 54.4609 42.2109 55.0234 41.9297C55.6016 41.6484 56.1797 41.2109 56.7578 40.6172C57.3516 40.0234 57.9609 39.2578 58.5859 38.3203C59.2109 37.3672 59.8516 36.2344 60.5078 34.9219L60.7422 34.4297L61.7031 35.1562L61.4688 35.6484C60.625 37.3203 59.7812 38.75 58.9375 39.9375C58.1094 41.125 57.2891 42.0938 56.4766 42.8438C55.6641 43.5938 54.8672 44.1406 54.0859 44.4844C53.3203 44.8281 52.5781 45 51.8594 45C50.8438 45 49.9375 44.7891 49.1406 44.3672C48.3438 43.9453 47.6719 43.375 47.125 42.6562C46.5781 41.9219 46.1562 41.0781 45.8594 40.125C45.5781 39.1562 45.4375 38.1406 45.4375 37.0781C45.4375 35.3906 45.6641 33.8594 46.1172 32.4844C46.5859 31.0938 47.1875 29.9062 47.9219 28.9219C48.6562 27.9375 49.4844 27.1719 50.4062 26.625C51.3281 26.0781 52.2578 25.8047 53.1953 25.8047C53.9141 25.8047 54.5156 25.9062 55 26.1094C55.4844 26.3125 55.875 26.5703 56.1719 26.8828C56.4688 27.1953 56.6797 27.5312 56.8047 27.8906C56.9297 28.25 56.9922 28.5938 56.9922 28.9219C56.9922 29.25 56.9219 29.5938 56.7812 29.9531C56.6406 30.2969 56.4297 30.625 56.1484 30.9375C55.8828 31.2344 55.5625 31.5078 55.1875 31.7578C54.8125 31.9922 54.3906 32.1641 53.9219 32.2734L53.6875 31.6172ZM67.6797 42.3516C68.2266 42.3516 68.7812 42.2109 69.3438 41.9297C69.9219 41.6484 70.5 41.2109 71.0781 40.6172C71.6719 40.0234 72.2812 39.2578 72.9062 38.3203C73.5312 37.3672 74.1719 36.2344 74.8281 34.9219L75.0625 34.4297L76.0234 35.1562L75.7891 35.6484C74.9453 37.3203 74.1016 38.75 73.2578 39.9375C72.4297 41.125 71.6094 42.0938 70.7969 42.8438C70 43.5938 69.2109 44.1406 68.4297 44.4844C67.6484 44.8281 66.8984 45 66.1797 45C65.1641 45 64.2578 44.7891 63.4609 44.3672C62.6641 43.9453 61.9922 43.375 61.4453 42.6562C60.8984 41.9219 60.4844 41.0781 60.2031 40.125C59.9062 39.1562 59.7578 38.1406 59.7578 37.0781C59.7578 35.3906 59.9922 33.8594 60.4609 32.4844C60.9141 31.0938 61.5234 29.9062 62.2891 28.9219C63.0703 27.9375 63.9531 27.1719 64.9375 26.625C65.9219 26.0781 66.9453 25.8047 68.0078 25.8047C69.0859 25.8047 69.9062 26.0781 70.4688 26.625C71.0469 27.1719 71.3359 27.8594 71.3359 28.6875C71.3359 29.4844 71.1094 30.2344 70.6562 30.9375C70.2031 31.625 69.5859 32.3047 68.8047 32.9766C68.0391 33.6328 67.1484 34.2891 66.1328 34.9453C65.1172 35.5859 64.0469 36.25 62.9219 36.9375C63.0312 37.75 63.2188 38.4922 63.4844 39.1641C63.75 39.8203 64.0859 40.3906 64.4922 40.875C64.8984 41.3438 65.3672 41.7109 65.8984 41.9766C66.4297 42.2266 67.0234 42.3516 67.6797 42.3516ZM68.4062 29.3906C68.4062 28.7656 68.2344 28.2734 67.8906 27.9141C67.5625 27.5547 67.1562 27.375 66.6719 27.375C66.2656 27.375 65.8359 27.5234 65.3828 27.8203C64.9297 28.1016 64.5156 28.5625 64.1406 29.2031C63.7656 29.8281 63.4531 30.6328 63.2031 31.6172C62.9531 32.6016 62.8281 33.7969 62.8281 35.2031V35.7422C63.3594 35.4609 63.9453 35.0938 64.5859 34.6406C65.2422 34.1719 65.8516 33.6562 66.4141 33.0938C66.9766 32.5312 67.4453 31.9375 67.8203 31.3125C68.2109 30.6719 68.4062 30.0312 68.4062 29.3906ZM76.2578 34.6875L76.0234 35.1562L75.7891 35.6484L74.8281 34.9219L75.0625 34.4297C75.4531 33.6328 75.7734 32.8359 76.0234 32.0391C76.2891 31.2266 76.5 30.4688 76.6562 29.7656C76.8281 29.0625 76.9688 28.4453 77.0781 27.9141C77.1875 27.3828 77.2969 27 77.4062 26.7656C77.5 26.5781 77.6328 26.4297 77.8047 26.3203C77.9922 26.1953 78.1797 26.0938 78.3672 26.0156C78.5703 25.9375 78.7578 25.8828 78.9297 25.8516C79.1172 25.8203 79.25 25.8047 79.3281 25.8047C79.6719 25.8047 79.8984 25.875 80.0078 26.0156C80.1328 26.1562 80.1953 26.4062 80.1953 26.7656C80.1953 26.9375 80.1562 27.3672 80.0781 28.0547C80.0156 28.7266 79.9375 29.5781 79.8438 30.6094C79.7656 31.625 79.6875 32.7734 79.6094 34.0547C79.5469 35.3203 79.5156 36.6328 79.5156 37.9922C79.5156 38.9766 79.5625 39.7578 79.6562 40.3359C79.75 40.8984 79.8672 41.3203 80.0078 41.6016C80.1641 41.8828 80.3281 42.0625 80.5 42.1406C80.6875 42.2188 80.875 42.2578 81.0625 42.2578C81.3125 42.2578 81.5938 42.1484 81.9062 41.9297C82.2188 41.7109 82.5859 41.3281 83.0078 40.7812C83.4297 40.2188 83.9141 39.4688 84.4609 38.5312C85.0078 37.5781 85.6484 36.375 86.3828 34.9219L86.6406 34.4297L87.6016 35.1562L87.3438 35.6484C86.75 36.8047 86.1562 37.9453 85.5625 39.0703C84.9844 40.1953 84.3906 41.1953 83.7812 42.0703C83.1875 42.9453 82.5859 43.6562 81.9766 44.2031C81.3672 44.7344 80.7578 45 80.1484 45C79.5078 45 78.9531 44.875 78.4844 44.625C78.0312 44.3594 77.6484 43.9297 77.3359 43.3359C77.0391 42.7422 76.8125 41.9609 76.6562 40.9922C76.5156 40.0078 76.4453 38.7969 76.4453 37.3594C76.4453 36.9531 76.4453 36.5312 76.4453 36.0938C76.4453 35.6406 76.4609 35.1719 76.4922 34.6875H76.2578ZM81.0625 21C81.0625 21.5469 80.875 22.0078 80.5 22.3828C80.1406 22.7422 79.6875 22.9219 79.1406 22.9219C78.6094 22.9219 78.1562 22.7422 77.7812 22.3828C77.4062 22.0078 77.2188 21.5469 77.2188 21C77.2188 20.4688 77.4062 20.0156 77.7812 19.6406C78.1562 19.2656 78.6094 19.0781 79.1406 19.0781C79.6875 19.0781 80.1406 19.2656 80.5 19.6406C80.875 20.0156 81.0625 20.4688 81.0625 21ZM86.5469 37.3125C86.5469 35.6562 86.6094 33.9922 86.7344 32.3203C86.8594 30.6484 87.0234 28.9531 87.2266 27.2344H85.0938L85.3516 25.8047H87.4141C87.6328 24.2109 87.8516 22.6172 88.0703 21.0234C88.3047 19.4141 88.5156 17.8047 88.7031 16.1953H91.0938C91.0625 16.5391 91.0156 17.0391 90.9531 17.6953C90.9062 18.3359 90.8438 19.0859 90.7656 19.9453C90.7031 20.7891 90.6406 21.7188 90.5781 22.7344C90.5156 23.7344 90.4531 24.7578 90.3906 25.8047H94.9375L94.7031 27.2344H90.2969C90.2344 28.125 90.1797 29 90.1328 29.8594C90.0859 30.7188 90.0391 31.5391 89.9922 32.3203C89.9609 33.0859 89.9375 33.7969 89.9219 34.4531C89.9062 35.0938 89.8984 35.6484 89.8984 36.1172C89.8984 37.3047 89.9297 38.2969 89.9922 39.0938C90.0703 39.8906 90.1797 40.5312 90.3203 41.0156C90.4766 41.5 90.6641 41.8438 90.8828 42.0469C91.1172 42.25 91.3828 42.3516 91.6797 42.3516C92.0703 42.3516 92.5 42.1562 92.9688 41.7656C93.4531 41.3594 93.9531 40.8203 94.4688 40.1484C94.9844 39.4766 95.5078 38.6953 96.0391 37.8047C96.5703 36.8984 97.0859 35.9375 97.5859 34.9219L97.8203 34.4297L98.7812 35.1562L98.5469 35.6484C97.8281 37.1016 97.1094 38.4062 96.3906 39.5625C95.6875 40.7188 94.9922 41.7031 94.3047 42.5156C93.6172 43.3125 92.9453 43.9297 92.2891 44.3672C91.6328 44.7891 91 45 90.3906 45C89.7812 45 89.2344 44.8594 88.75 44.5781C88.2812 44.2969 87.8828 43.8516 87.5547 43.2422C87.2266 42.6172 86.9766 41.8203 86.8047 40.8516C86.6328 39.8828 86.5469 38.7031 86.5469 37.3125ZM112.047 39.1875C112.047 40.0781 112.125 40.8281 112.281 41.4375C112.438 42.0469 112.711 42.3516 113.102 42.3516C113.336 42.3516 113.586 42.2422 113.852 42.0234C114.133 41.7891 114.453 41.4141 114.812 40.8984C115.172 40.3828 115.578 39.7188 116.031 38.9062C116.5 38.0781 117.031 37.0703 117.625 35.8828L118.328 34.4297L119.289 35.1562L118.586 36.6094C117.93 37.9219 117.312 39.1016 116.734 40.1484C116.172 41.1797 115.633 42.0547 115.117 42.7734C114.602 43.4922 114.094 44.0469 113.594 44.4375C113.109 44.8125 112.625 45 112.141 45C111.625 45 111.188 44.8594 110.828 44.5781C110.484 44.2969 110.195 43.9141 109.961 43.4297C109.727 42.9297 109.547 42.3594 109.422 41.7188C109.297 41.0625 109.211 40.3672 109.164 39.6328C108.789 40.3828 108.375 41.0859 107.922 41.7422C107.469 42.3828 106.992 42.9453 106.492 43.4297C106.008 43.9141 105.5 44.2969 104.969 44.5781C104.438 44.8594 103.906 45 103.375 45C102.594 45 101.836 44.8359 101.102 44.5078C100.367 44.1797 99.7109 43.6797 99.1328 43.0078C98.5703 42.3359 98.1172 41.4922 97.7734 40.4766C97.4297 39.4453 97.2578 38.2344 97.2578 36.8438C97.2578 35.2188 97.4688 33.7344 97.8906 32.3906C98.3125 31.0312 98.8828 29.8672 99.6016 28.8984C100.32 27.9141 101.148 27.1562 102.086 26.625C103.023 26.0781 104.008 25.8047 105.039 25.8047C105.664 25.8047 106.242 25.9453 106.773 26.2266C107.305 26.5078 107.766 26.8516 108.156 27.2578C108.562 27.6484 108.898 28.0703 109.164 28.5234C109.43 28.9609 109.609 29.3359 109.703 29.6484L109.984 27.375C110.016 27.0781 110.156 26.8281 110.406 26.625C110.672 26.4219 110.961 26.2656 111.273 26.1562C111.586 26.0312 111.891 25.9453 112.188 25.8984C112.484 25.8359 112.695 25.8047 112.82 25.8047C113.008 25.8047 113.133 25.8359 113.195 25.8984C113.258 25.9609 113.289 26.0859 113.289 26.2734C113.289 26.5078 113.219 26.9844 113.078 27.7031C112.953 28.4062 112.812 29.3125 112.656 30.4219C112.516 31.5156 112.375 32.8047 112.234 34.2891C112.109 35.7734 112.047 37.4062 112.047 39.1875ZM109.469 33C109.469 32.2812 109.359 31.5781 109.141 30.8906C108.922 30.1875 108.625 29.5703 108.25 29.0391C107.875 28.4922 107.438 28.0547 106.938 27.7266C106.453 27.3984 105.938 27.2344 105.391 27.2344C104.719 27.2344 104.086 27.4297 103.492 27.8203C102.914 28.1953 102.406 28.7344 101.969 29.4375C101.547 30.125 101.211 30.9609 100.961 31.9453C100.711 32.9141 100.586 33.9844 100.586 35.1562C100.586 37.5 100.953 39.2891 101.688 40.5234C102.422 41.7422 103.398 42.3516 104.617 42.3516C105.148 42.3516 105.695 42.1406 106.258 41.7188C106.836 41.2812 107.359 40.6641 107.828 39.8672C108.312 39.0547 108.703 38.0703 109 36.9141C109.312 35.7578 109.469 34.4531 109.469 33ZM118.234 37.3125C118.234 35.6562 118.297 33.9922 118.422 32.3203C118.547 30.6484 118.711 28.9531 118.914 27.2344H116.781L117.039 25.8047H119.102C119.32 24.2109 119.539 22.6172 119.758 21.0234C119.992 19.4141 120.203 17.8047 120.391 16.1953H122.781C122.75 16.5391 122.703 17.0391 122.641 17.6953C122.594 18.3359 122.531 19.0859 122.453 19.9453C122.391 20.7891 122.328 21.7188 122.266 22.7344C122.203 23.7344 122.141 24.7578 122.078 25.8047H126.625L126.391 27.2344H121.984C121.922 28.125 121.867 29 121.82 29.8594C121.773 30.7188 121.727 31.5391 121.68 32.3203C121.648 33.0859 121.625 33.7969 121.609 34.4531C121.594 35.0938 121.586 35.6484 121.586 36.1172C121.586 37.3047 121.617 38.2969 121.68 39.0938C121.758 39.8906 121.867 40.5312 122.008 41.0156C122.164 41.5 122.352 41.8438 122.57 42.0469C122.805 42.25 123.07 42.3516 123.367 42.3516C123.758 42.3516 124.188 42.1562 124.656 41.7656C125.141 41.3594 125.641 40.8203 126.156 40.1484C126.672 39.4766 127.195 38.6953 127.727 37.8047C128.258 36.8984 128.773 35.9375 129.273 34.9219L129.508 34.4297L130.469 35.1562L130.234 35.6484C129.516 37.1016 128.797 38.4062 128.078 39.5625C127.375 40.7188 126.68 41.7031 125.992 42.5156C125.305 43.3125 124.633 43.9297 123.977 44.3672C123.32 44.7891 122.688 45 122.078 45C121.469 45 120.922 44.8594 120.438 44.5781C119.969 44.2969 119.57 43.8516 119.242 43.2422C118.914 42.6172 118.664 41.8203 118.492 40.8516C118.32 39.8828 118.234 38.7031 118.234 37.3125ZM136.445 42.3516C136.992 42.3516 137.547 42.2109 138.109 41.9297C138.688 41.6484 139.266 41.2109 139.844 40.6172C140.438 40.0234 141.047 39.2578 141.672 38.3203C142.297 37.3672 142.938 36.2344 143.594 34.9219L143.828 34.4297L144.789 35.1562L144.555 35.6484C143.711 37.3203 142.867 38.75 142.023 39.9375C141.195 41.125 140.375 42.0938 139.562 42.8438C138.766 43.5938 137.977 44.1406 137.195 44.4844C136.414 44.8281 135.664 45 134.945 45C133.93 45 133.023 44.7891 132.227 44.3672C131.43 43.9453 130.758 43.375 130.211 42.6562C129.664 41.9219 129.25 41.0781 128.969 40.125C128.672 39.1562 128.523 38.1406 128.523 37.0781C128.523 35.3906 128.758 33.8594 129.227 32.4844C129.68 31.0938 130.289 29.9062 131.055 28.9219C131.836 27.9375 132.719 27.1719 133.703 26.625C134.688 26.0781 135.711 25.8047 136.773 25.8047C137.852 25.8047 138.672 26.0781 139.234 26.625C139.812 27.1719 140.102 27.8594 140.102 28.6875C140.102 29.4844 139.875 30.2344 139.422 30.9375C138.969 31.625 138.352 32.3047 137.57 32.9766C136.805 33.6328 135.914 34.2891 134.898 34.9453C133.883 35.5859 132.812 36.25 131.688 36.9375C131.797 37.75 131.984 38.4922 132.25 39.1641C132.516 39.8203 132.852 40.3906 133.258 40.875C133.664 41.3438 134.133 41.7109 134.664 41.9766C135.195 42.2266 135.789 42.3516 136.445 42.3516ZM137.172 29.3906C137.172 28.7656 137 28.2734 136.656 27.9141C136.328 27.5547 135.922 27.375 135.438 27.375C135.031 27.375 134.602 27.5234 134.148 27.8203C133.695 28.1016 133.281 28.5625 132.906 29.2031C132.531 29.8281 132.219 30.6328 131.969 31.6172C131.719 32.6016 131.594 33.7969 131.594 35.2031V35.7422C132.125 35.4609 132.711 35.0938 133.352 34.6406C134.008 34.1719 134.617 33.6562 135.18 33.0938C135.742 32.5312 136.211 31.9375 136.586 31.3125C136.977 30.6719 137.172 30.0312 137.172 29.3906Z" fill="#335500"/>
<path d="M160.089 50.9519C150.65 51.3543 147.843 35.7949 162.351 36.357" stroke="#38550F" stroke-width="2"/>
<path d="M162.581 50.9847C170.295 51.0346 176.852 46.044 178.185 44.6209C172.657 40.8645 165.994 35.5625 163.581 36.4848" stroke="#38550F" stroke-width="2"/>
<path d="M143.692 35.4842C151.695 49.6533 170.923 41.484 173.423 43.484" stroke="#38550F" stroke-width="2"/>
<circle r="0.308414" transform="matrix(0.998842 0.0481191 0.0481191 -0.998842 156.904 42.807)" fill="#38550F"/>
<path d="M161.344 42.8071C161.353 42.6369 161.221 42.4924 161.051 42.4842C160.881 42.476 160.736 42.6073 160.728 42.7774C160.72 42.9475 160.851 43.0921 161.021 43.1003C161.192 43.1085 161.336 42.9772 161.344 42.8071Z" fill="#38550F"/>
<circle r="0.308414" transform="matrix(0.998842 0.0481191 0.0481191 -0.998842 163.904 42.807)" fill="#38550F"/>
<circle r="0.308414" transform="matrix(0.998842 0.0481191 0.0481191 -0.998842 168.904 41.807)" fill="#38550F"/>
<path d="M165.083 47.6889L164.795 47.7939C164.678 47.7894 165.205 46.9409 164.691 44.9531C164.713 44.375 164.679 44.3715 164.842 44.7272C165.406 45.9643 165.242 47.8107 165.083 47.6889Z" fill="#38550F" stroke="#38550F"/>
<path d="M156.041 44.6427L156.423 44.5238C156.579 44.5331 155.657 44.5242 156.291 46.9732C156.248 47.6798 156.292 47.6851 156.086 47.2446C155.368 45.7124 155.833 44.4884 156.041 44.6427Z" fill="#38550F" stroke="#38550F"/>
<path d="M161.404 49.0783L160.927 49.1829C160.737 49.1586 161.691 48.0382 161.096 45.1456C161.201 44.3306 161.147 44.3207 161.367 44.8489C162.133 46.6865 161.647 49.2751 161.404 49.0783Z" fill="#38550F" stroke="#38550F"/>
<path d="M168.857 43.594L169.291 43.5033C169.471 43.5089 168.692 44.2658 169.535 46.0621C169.519 46.5823 169.57 46.5858 169.312 46.2635C168.415 45.1423 168.61 43.4822 168.857 43.594Z" fill="#38550F" stroke="#38550F"/>
</svg>
