<svg id="OBJECTS" xmlns="http://www.w3.org/2000/svg" xmlns:xlink="http://www.w3.org/1999/xlink" viewBox="0 0 425.2 301.7"><defs><style>.cls-1{fill:none;}.cls-2{clip-path:url(#clip-path);}.cls-3{fill:#eb6424;}.cls-4{fill:#262626;}.cls-5{fill:#fa9500;}.cls-6{fill:#fff;}</style><clipPath id="clip-path" transform="translate(-115.98 -99.44)"><rect class="cls-1" x="101.81" y="91.44" width="453.54" height="317.12"/></clipPath></defs><g class="cls-2"><g id="logo"><path class="cls-3" d="M245.17,328.71c-5.66,6.06-19.4,21.62-48.31,21.62-40.62,0-68.52-30.52-68.52-72.36,0-42.65,29.92-72.77,66.71-72.77,21.42,0,35.57,5.06,50.12,19.61,3.64,3.64,1.42,5.86.41,7.88-1,2.23-4.85,8.9-6.47,11.73-1.82,2.83-5.66,10.3-7.48,11.72a2.93,2.93,0,0,1-4.24-.4,36.9,36.9,0,0,0-29.31-14.15c-18.4,0-31.13,14.75-31.13,35.77,0,22.44,14,36.19,31.13,36.19,13.94,0,22.84-6.47,29.31-13.34,1.21-1.22,2.62-1.62,4,0,1.21,1.41,4.24,6.67,7.28,10.91,3.23,4.45,6.46,9.1,7.68,10.92C247.6,324.06,247.8,325.88,245.17,328.71Z" transform="translate(-115.98 -99.44)"/><path class="cls-3" d="M355.34,305.86c0,7.08.2,35.38.2,37.6,0,2.83-.4,3.64-2.83,3.84s-11.12.41-14.35.41c-3,0-12.74-.41-15.16-.81-2.63-.41-3.24-1-3.24-4.25,0-3,.41-23.85.41-27.69s.2-21.22.2-23.45c0-7.48-3.23-11.52-11.72-11.52-7.48,0-15.16,6.87-15.16,10.31v24.46c0,4.24.4,25.87.4,28.5,0,2.83-.6,3.84-3,4-2.83.2-10.51.41-14.35.41-3.64,0-9.1.2-14.56-.81-2.62-.41-3.43-1.42-3.43-3.44,0-2.42.2-43.86.2-46.89,0-61.65-2-78.63-3-82.88-.41-1.82-.61-3.64,1.21-3.84,1.62-.4,15.16-1.21,18.19-1.62,3.44-.4,15-1.81,16.78-2,1.62-.2,2.63-.2,2.63,2,0,1.22-.61,9.91-.81,17.19-.2,8.89-.61,24.45-.61,35.17,0,2.22,1,2.83,3,1a76,76,0,0,1,11.52-7.89,38.45,38.45,0,0,1,17.58-4.44c7.68,0,15.77,2.22,20.82,6.26a25,25,0,0,1,9.5,19.81C355.74,282.62,355.34,298.79,355.34,305.86Z" transform="translate(-115.98 -99.44)"/><path class="cls-3" d="M455.8,304.65c-8.09,1-50.53,5.06-55.18,5.26,1.61,7.48,10.1,12.53,21.42,12.53a37.18,37.18,0,0,0,24.06-8.89c1.21-1,1.61-.61,2.22.2,2,2.42,4.85,7.68,5.66,9.09.61.81,4.25,7.48,5,10.72.21,1-.2,2-1.41,3.23-7.28,7.28-18,12.94-37.4,12.94-34.76,0-52.75-23.25-52.75-50.94,0-30.72,19.81-52.15,49.32-52.15,21.22,0,44.47,16.37,45.48,46.69C462.27,300.21,458.83,304.25,455.8,304.65Zm-43.86-32.74c-8.69.6-12.54,9.09-12.94,16.57-.2,2.43.4,2.83,4.25,2.63,3-.2,14.14-1.42,21.22-2.22,2.83-.21,3.23-1,3.23-1.62C427.1,279.79,422,271.3,411.94,271.91Z" transform="translate(-115.98 -99.44)"/><path class="cls-3" d="M533.22,285.65c-4.45,0-12.74-.2-16.78-.6.2,4.44.61,17,.61,20.61.2,7.08,1.21,30.93,1.61,38,.21,2.43-.4,3.24-2.83,3.44-2.62.2-13.74.4-16.77.4s-12.33-.2-14.56-.6c-2.63-.41-3.23-.81-3.23-4V288.48c0-1.82-.41-2.63-2-2.63-8.9,0-9.1-.2-9.3-1.61-.2-2.83-.61-10.92-.61-13.34,0-2.63-.4-11.93-.2-13.34,0-1,.81-1.62,2-2.23,1.42-.61,3-.61,8.49-1-.81-13.34-1.41-28.1,6.07-37a42.07,42.07,0,0,1,20.21-12.53c6.47-1.82,18-2.63,22.23-2.83,1.22,0,2.23,0,2.43,1.21.61,2,1.82,10.71,2.22,13.14s2,9.5,2.23,11.12a2.61,2.61,0,0,1-2,2.62c-5.66.21-12.73,1-15,3.44-3,3.44-3.84,13.14-2.83,20,3.43,0,15.76-.4,17.38-.4,2,0,3,0,3,2.22,0,2.63-.2,9.91-.2,13.54,0,3.24.4,12.13.4,14.36C536.05,285.25,535,285.65,533.22,285.65Z" transform="translate(-115.98 -99.44)"/><path class="cls-4" d="M193.41,195c-.44,0-2.61.11-3.09.11s-2.9,0-3.31-.11-.51-.15-.47-.63.25-7.94.25-8.38,0-.78-.4-.81-4.23-.15-4.34-.15-4.05.11-4.38.15-.4.22-.4.81c0,.44.18,7.79.18,8.38s-.07.59-.47.63-2.91.11-3.39.11-2.72-.08-3.09-.11-.55-.11-.51-.56.37-8.89.37-11.73-.3-11.87-.34-12.24c-.07-.59,0-.7.52-.66s2.83.11,3.2.11,3.09-.08,3.31-.11c.44,0,.48.07.44.55s-.33,7.43-.37,7.83,0,.7.33.74,4.31.14,4.6.14,4.12-.11,4.45-.14.44-.3.44-.74-.26-7.43-.26-7.83,0-.59.44-.55c.23,0,2.84.11,3.2.11s2.87-.08,3.2-.11c.52,0,.56.14.52.66s-.33,9.41-.33,12.24.33,11.33.37,11.73S194,194.91,193.41,195Z" transform="translate(-115.98 -99.44)"/><path class="cls-4" d="M212.13,192.67a9.08,9.08,0,0,1-15.74-6.55,8.94,8.94,0,0,1,2.61-6.69,8.72,8.72,0,0,1,6.43-2.47,9.45,9.45,0,0,1,6.48,2.43,9.17,9.17,0,0,1,2.61,6.73A9.66,9.66,0,0,1,212.13,192.67Zm-6.66-10.15a3.63,3.63,0,1,0,3.16,3.6A3.37,3.37,0,0,0,205.47,182.52Z" transform="translate(-115.98 -99.44)"/><path class="cls-4" d="M242,186.27c-.22.48-1.43,2.79-2.24,4.12-.7,1.17-2.5,3.89-2.72,4.15a1.12,1.12,0,0,1-.63.41,10.74,10.74,0,0,1-1.73.11,16.35,16.35,0,0,1-2-.11,1.29,1.29,0,0,1-.63-.37,30.7,30.7,0,0,1-2.13-3.27c-.26-.45-.77-1.18-1-1.66-.33.59-.73,1.25-1,1.69-1,1.58-1.87,3-2.06,3.24a1,1,0,0,1-.59.37,12.31,12.31,0,0,1-1.76.11,11.4,11.4,0,0,1-1.77-.11,1.13,1.13,0,0,1-.62-.41c-.19-.22-2-2.83-2.8-4.08a35.69,35.69,0,0,1-2.09-4.19,17.56,17.56,0,0,1-.48-3.9,36.76,36.76,0,0,1,.18-4.05c.11-.47.22-.47.63-.47s2.06.11,2.54.11h2.42c.37,0,.41.11.41.59s-.08,2.09-.08,2.83,0,2.17.11,3.56a12.84,12.84,0,0,0,2.1,3.64c.29,0,1.58-2,2.1-3.56a17.3,17.3,0,0,0,.22-3.28c0-1-.19-2.79-.19-3.19s0-.56.41-.56l2.68,0c-.44,0,1.88,0,2.54,0,.22,0,.4.15.4.56s-.18,2.31-.18,3.16a17.68,17.68,0,0,0,.15,3.31c.47,1.5,1.69,3.56,2,3.56a9.22,9.22,0,0,0,2.1-3.67c.11-1.4.15-2.8.15-3.53s-.08-2.36-.08-2.83,0-.63.37-.63h2.43c.51,0,2.17-.11,2.53-.11s.52,0,.63.51.18,2.65.18,4.05A21,21,0,0,1,242,186.27Z" transform="translate(-115.98 -99.44)"/><path class="cls-4" d="M270.77,175.6c-.33,0-3.27-.14-5.22-.25,0,1.5-.11,5.11-.11,6.32,0,2.28.3,12.36.33,12.76s-.07.44-.66.52c-.33,0-2.72.14-3.16.14s-2.8-.11-3.24-.14-.55-.11-.51-.56.36-9.89.36-12.72c0-1.62-.07-3.82-.14-6.25-1.44.15-4.27.29-5.74.37-.18,0-.37,0-.22-.41.07-.18.33-1.47.52-2.68s.22-2.61.25-2.8.11-.29.55-.22,6.33.37,8.61.37,7.8-.51,8.31-.51.52,0,.48.4-.08,1.95-.08,2.68a19.72,19.72,0,0,0,.23,2.43C271.36,175.53,271.29,175.64,270.77,175.6Z" transform="translate(-115.98 -99.44)"/><path class="cls-4" d="M284,192.67a9.07,9.07,0,0,1-15.73-6.55,8.87,8.87,0,0,1,2.61-6.69,8.72,8.72,0,0,1,6.43-2.47,9.41,9.41,0,0,1,6.47,2.43,9.17,9.17,0,0,1,2.61,6.73A9.61,9.61,0,0,1,284,192.67Zm-6.65-10.15a3.63,3.63,0,1,0,3.16,3.6A3.37,3.37,0,0,0,277.32,182.52Z" transform="translate(-115.98 -99.44)"/><path class="cls-5" d="M458.4,153.49a46.8,46.8,0,0,0-80.83-18.4,45.29,45.29,0,0,1-36.21,15.45l-.54,0a30.88,30.88,0,1,0-.58,61.76,30.79,30.79,0,0,0,10.94-2,67.77,67.77,0,0,1,46.42-.65,46.88,46.88,0,0,0,33.36-.87,30.59,30.59,0,0,0,15.58,3.49,30.86,30.86,0,0,0,11.86-58.76Z" transform="translate(-115.98 -99.44)"/><path class="cls-6" d="M331.67,158.16a20.25,20.25,0,0,0-13.85,12.62,15.8,15.8,0,0,0-.53,9.36,42.37,42.37,0,0,1,3.88-7.74A31.92,31.92,0,0,1,333,161.64a44.11,44.11,0,0,1,8.06-3.21A16.22,16.22,0,0,0,331.67,158.16Z" transform="translate(-115.98 -99.44)"/><path class="cls-6" d="M398.2,127.58A35,35,0,0,0,385,135.33c-.93.9-1.84,1.82-2.68,2.8l-2.32,2.7c-1.54,1.76-3.22,3.38-4.94,5a94.54,94.54,0,0,1-11.48,8.72,36.75,36.75,0,0,0,13.76-5.81,39.86,39.86,0,0,0,5.9-4.79c.9-.86,1.81-1.91,2.58-2.71s1.59-1.66,2.41-2.45A47.37,47.37,0,0,1,399.56,131a58.67,58.67,0,0,1,13.59-4.43A30.35,30.35,0,0,0,398.2,127.58Z" transform="translate(-115.98 -99.44)"/><path class="cls-5" d="M446.54,212.25A30.59,30.59,0,0,1,431,208.76a46.88,46.88,0,0,1-33.36.87,67.77,67.77,0,0,0-46.42.65,30.52,30.52,0,0,1-18,1.15l3.3,21.44H449l3.31-21.44A29.83,29.83,0,0,1,446.54,212.25Z" transform="translate(-115.98 -99.44)"/><path class="cls-3" d="M340.24,212.28a30.79,30.79,0,0,0,10.94-2,67.77,67.77,0,0,1,46.42-.65,46.88,46.88,0,0,0,33.36-.87,30.59,30.59,0,0,0,15.58,3.49,30.86,30.86,0,0,0,11.86-58.76c-.09-.33-.21-.64-.31-1a87,87,0,0,0-8.85-.46,31.32,31.32,0,0,0-15.53,4.12l-5.39,3.09s28.56-.52,30.37,19c2.18,23.71-13.39,22.13-13.39,22.13l6.18-11.84s-18.79,14.16-34.74,13.9-24.45-9-41.18-6.69l4.63-13.13s-13.38,19-29.33,19c0,0-19.43,6.56-32.43-6.44-7.16-7.16-8.61-14.55-8.48-19.74a30.23,30.23,0,0,0-.55,4.18A30.88,30.88,0,0,0,340.24,212.28Z" transform="translate(-115.98 -99.44)"/><path class="cls-3" d="M446.54,212.25A30.59,30.59,0,0,1,431,208.76a46.88,46.88,0,0,1-33.36.87,67.77,67.77,0,0,0-46.42.65,30.52,30.52,0,0,1-18,1.15l1.39,9a31.36,31.36,0,0,0,5.69.55,30.71,30.71,0,0,0,11.45-2.2c14.66-5.87,31-5.7,45.9-.45a46.52,46.52,0,0,0,11,2.41v1.73H381.48a2.37,2.37,0,0,0,0,4.74h21.8a5.34,5.34,0,0,1,5.35,5.35H449l.82-5.35.71-4.71.32-2.08h.06l1.4-9A29.83,29.83,0,0,1,446.54,212.25Z" transform="translate(-115.98 -99.44)"/><path class="cls-3" d="M458.08,152.48a46.79,46.79,0,0,0-38-33.25l.31.58s23.67,9.77,23.67,31.56A68.31,68.31,0,0,1,458.08,152.48Z" transform="translate(-115.98 -99.44)"/><path class="cls-4" d="M478.48,180.84a33,33,0,0,0-18.08-29,49.17,49.17,0,0,0-84.63-18.28,42.71,42.71,0,0,1-34.32,14.62l-.59,0A33.54,33.54,0,0,0,307,179.6a33.21,33.21,0,0,0,24,33.74l3.37,21.9H451l3.39-21.94A33.48,33.48,0,0,0,478.48,180.84Zm-29,33.53-.81,5.32H381.48a2.37,2.37,0,0,0,0,4.74h66.43L447,230.5H338.5L336,214.36l.2,0,1.2.12a33.82,33.82,0,0,0,5.78,0l.14,0a32,32,0,0,0,5.59-1l.49-.14c.83-.24,1.65-.5,2.45-.8a57,57,0,0,0,6.82-2.17,65,65,0,0,1,38.13,1.49,49.33,49.33,0,0,0,34-.51,33.1,33.1,0,0,0,13.75,3.28c.68,0,1.36,0,2,0h.05C447.61,214.57,448.53,214.49,449.46,214.37Zm2.82-5.36-.52.12c-.88.21-1.77.38-2.66.51a25.77,25.77,0,0,1-2.66.24h0a28.45,28.45,0,0,1-9.27-1.15c11.18-5.95,15.62-17,15.83-17.55a2.37,2.37,0,1,0-4.41-1.73c0,.13-5.08,12.46-17.45,16.73l-.06,0-1,.42a44.48,44.48,0,0,1-31.67.82c-.95-.33-1.9-.64-2.86-.93l-.89-.25c-.67-.2-1.33-.39-2-.56-.36-.1-.73-.17-1.09-.26-.61-.15-1.22-.3-1.83-.43l-1.19-.22c-.59-.12-1.17-.23-1.76-.33-.41-.07-.83-.12-1.25-.18s-1.14-.17-1.71-.24-.87-.1-1.3-.14-1.11-.12-1.67-.16l-1.34-.08q-.83-.06-1.65-.09l-1.36,0-1.12,0h-.48c-.55,0-1.1,0-1.66,0s-1,0-1.45,0l-1.33.09c10.2-8.31,11.61-18.29,11.69-18.88a2.37,2.37,0,0,0-4.71-.59c0,.16-2,14.42-20.29,21.7l-.78.2c-.66.19-1.32.39-2,.6l-1.05.32c-1,.33-2,.68-3,1.06-.75.28-1.51.52-2.28.74-.18.06-.37.1-.55.15-.62.16-1.24.31-1.87.43l-.51.09c-.69.12-1.37.21-2.07.28l-.34,0c-.82.07-1.64.11-2.46.11h0c-.83,0-1.65-.06-2.47-.12-.51,0-1-.11-1.53-.19l-.63-.1c-.64-.1-1.27-.22-1.91-.37l-.32-.08a28.45,28.45,0,0,1-21.61-29.2,28.76,28.76,0,0,1,29-27h.5a47.35,47.35,0,0,0,38.1-16.27A44.41,44.41,0,0,1,454.77,150c-16.37-3.64-28,6.54-28.55,7a2.37,2.37,0,0,0-.18,3.34,2.33,2.33,0,0,0,1.77.8,2.36,2.36,0,0,0,1.57-.6c.49-.43,12.21-10.58,28.09-4.84a28.31,28.31,0,0,1,16.27,25.24A28.74,28.74,0,0,1,452.28,209Z" transform="translate(-115.98 -99.44)"/><path class="cls-4" d="M364,123.45c-4.59,7.21-13.7,11.28-22.46,11.18-2,.06-4,.34-6,.49a49.89,49.89,0,0,0-5.83,1.23,47.49,47.49,0,0,0-11,4.33,52.43,52.43,0,0,0-17.74,15.65c-4.78,6.48-7.74,14.21-9.41,22.46a42.8,42.8,0,0,1,6-24.65,47.33,47.33,0,0,1,8.06-10.28,53.44,53.44,0,0,1,10.61-7.74,47.69,47.69,0,0,1,25.39-5.52A29,29,0,0,0,364,123.45Z" transform="translate(-115.98 -99.44)"/><path class="cls-4" d="M494,180.59a52.23,52.23,0,0,0-7-21.34,49.79,49.79,0,0,0-15.07-15.89l-.51-.35-.3-.68a66.74,66.74,0,0,0-30.43-32.74,69,69,0,0,0-21.77-7,70.63,70.63,0,0,0-23.32.55,55.41,55.41,0,0,1,11.56-3c2-.32,4-.53,6-.67s4-.11,6.06,0a62.72,62.72,0,0,1,23.56,5.9,63.93,63.93,0,0,1,32.63,35.21l-.82-1a47.88,47.88,0,0,1,15.12,18.23A45.91,45.91,0,0,1,494,180.59Z" transform="translate(-115.98 -99.44)"/><path class="cls-4" d="M541.14,217.86c-3-12.22-3.18-16.19-5.83-22-2.31-5.08-23.62.4-26.15-.08,3.36-1.52,26.15-8.27,28.93-3.84C541.32,197.06,541.26,207.6,541.14,217.86Z" transform="translate(-115.98 -99.44)"/><path class="cls-4" d="M163.15,201c-31,3.89-51.09,42.92-46.52,72.14C119.22,237,135.57,214.29,163.15,201Z" transform="translate(-115.98 -99.44)"/><path class="cls-4" d="M124.22,312.29c3.5,28,32.75,50.66,52.65,50.24C152.22,354.09,133.73,337.42,124.22,312.29Z" transform="translate(-115.98 -99.44)"/><path class="cls-4" d="M363.78,310.88c-1.71,21.41,20.86,39.71,35.36,41.3C380.4,345.55,366,328.22,363.78,310.88Z" transform="translate(-115.98 -99.44)"/><path class="cls-4" d="M524.9,327.22c-.23,12.6.54,16.49-.74,22.78-1.1,5.48-23.1,4.91-25.46,6,3.62.72,27.34,2.19,29.05-2.76C529.74,347.45,527.32,337.19,524.9,327.22Z" transform="translate(-115.98 -99.44)"/><path class="cls-4" d="M335.57,177.32h-5.1a1.42,1.42,0,0,1-1.57-1,1.44,1.44,0,0,1,.84-1.73q7.77-4.47,15.55-8.94c.84-.49,1.45-.45,2,.07a1.51,1.51,0,0,1,.05,2c-1.68,2.88-3.37,5.75-5,8.63a1.82,1.82,0,0,1-1.75,1C338.88,177.29,337.22,177.32,335.57,177.32Z" transform="translate(-115.98 -99.44)"/><path class="cls-4" d="M355.65,180.65c0,3,0,6.07,0,9.1a1.39,1.39,0,0,1-1.91,1.43,1.69,1.69,0,0,1-.74-.66q-2.64-4.53-5.23-9.1a1.48,1.48,0,0,1,0-1.57q2.63-4.54,5.26-9.09a1.39,1.39,0,0,1,1.61-.72,1.4,1.4,0,0,1,1,1.44c0,3.06,0,6.11,0,9.17Z" transform="translate(-115.98 -99.44)"/><path class="cls-4" d="M335.64,183.87c1.7,0,3.4,0,5.09,0a1.55,1.55,0,0,1,1.5.87q2.53,4.41,5.09,8.81a1.45,1.45,0,0,1-2,2l-15.58-9a1.44,1.44,0,0,1,.77-2.75h5.15Z" transform="translate(-115.98 -99.44)"/><path class="cls-4" d="M259,359.8v0a1.52,1.52,0,0,1-.07-.59c.11-.54.65-.61,1.24-.64a4.2,4.2,0,0,1,3.15,1.27c1.39,1.58,1.81,4.85,2.07,7.13l.1.63c.18,1.88.33,4.19.49,6.52.19,3,.33,5.57.61,7.52,2.42-5.29,7.27-12.74,9.78-17.45V364a2.39,2.39,0,0,0-.11-1,1,1,0,0,1-.05-.4c0-.45.42-.54.89-.61,2.54-.24,3,1.24,2.92,2.72-.24,3.32-1.86,9.65-3.22,15-1.41,5.48-2,7.69-2.14,9.76-.26,2.85.19,5.5,2.82,6a4.22,4.22,0,0,0,.85,0c.82,0,1.78,0,1.78.49,0,.21-.19.45-.56.73a13.53,13.53,0,0,1-3.27.28c-4.82-.26-5.57-4.14-5.22-8.23a42.76,42.76,0,0,1,.87-5.15c.49-2.35,1.29-5.62,2-8.39.64-2.47,1-3.95,1.46-6-.73,1.57-1.81,3.1-7.71,13.94v0c-.07.23-.19.47-.24.68-.28.82-.61,1.46-1.5,1.67a1.76,1.76,0,0,1-2.28-1.44c-.71-2.63-1-8.09-1.3-12.6l-.11-2.38c-.64,2-1.2,3.74-1.72,5.39-.92,3-1.72,5.6-2.66,8.14-2.49,7-6.09,14-12.18,17.18a11.16,11.16,0,0,1-5.24,1.32,10.22,10.22,0,0,1-3.18-.49h0c-4.61-1.46-6.82-5.86-6.37-11a16.71,16.71,0,0,1,.47-2.8c1.29-5.06,5.22-9.6,9.85-10.09,4.49-.26,6.18,4,5.81,8.37,0,.49-.15,1.06-.24,1.53a.63.63,0,0,1-.05.21c-.11.75-.4,2.16-1.1,2.16-.52.05-.64-.25-.59-.63a2.1,2.1,0,0,1,.14-.66c.05-.12.1-.33.1-.3a13,13,0,0,0,.42-2.29c.21-2.44-.24-5.17-2.35-5.45-2.21-.59-6.49,3.48-8.42,8a17.47,17.47,0,0,0-.89,3.76c-.31,3.72,1,6.94,3.59,7.43h0a5.31,5.31,0,0,0,.68,0c7.69,0,12.61-11.5,15.07-18.16,1.53-3.92,5.55-17.44,5.67-19.35A3.78,3.78,0,0,0,259,359.8Z" transform="translate(-115.98 -99.44)"/><path class="cls-4" d="M284.05,387.67c-3.27,0-4.47-3-4.47-6.21a10.12,10.12,0,0,1,.05-1.22v0c.44-5.24,3.88-11.47,8.23-11.47,2.75,0,4.39,2.58,4.25,5.07-.4,3.53-4.63,5.93-7.8,6.61a16,16,0,0,0-.26,1.72,6.61,6.61,0,0,0,0,.77c0,1.37.38,2.68,1.91,2.8,2.4-.07,4.28-3.24,5.48-5.24v0c.75-1.29,1.41-2.63,1.92-3.67.24-.47.62-1.12.85-1.57a1.74,1.74,0,0,1,.35-.12c.29,0,.45.19.57.45l-.24.51c-.56,1.16-1.43,2.87-2.42,4.59C290.77,383.76,288.42,387.67,284.05,387.67Zm5.73-16.09c-1.83,0-4.65,5.6-5.17,7.62,2.12-.28,6.14-2.33,6.37-5.15a3.08,3.08,0,0,0-.35-1.79C290.4,371.8,290.09,371.58,289.78,371.58Z" transform="translate(-115.98 -99.44)"/><path class="cls-4" d="M305.56,376.1a1.31,1.31,0,0,1-.59.21.63.63,0,0,1-.49-.28,4.81,4.81,0,0,0,.21-1c.07-1.6-.56-3.59-2.28-3.59-3.32,0-7,8.53-7.2,11.28-.07.9,0,2.12,1.13,2.12,2,0,4.47-4.49,5.65-6.8a3.83,3.83,0,0,0,.33-1.38c-.05-.43.44-.55.91-.57,1.86.17,2.47.92,2.57,1.91a14,14,0,0,1-.5,3.24c-.12.64-.73,4.33.45,3.27,1.53-1.53,3.48-5.06,4.7-7.38a21.16,21.16,0,0,1,1-1.91.87.87,0,0,1,.35-.07.64.64,0,0,1,.57.45l-.24.51c-1.29,2.62-4,8.21-6.25,10a4.12,4.12,0,0,1-2.43.92c-2.23,0-2.42-3.67-2.18-5.24a1.77,1.77,0,0,1,0-.24c-1.69,2.8-4.11,5.57-6.75,5.57-2.47,0-3.27-1.85-3.27-4a5.55,5.55,0,0,1,0-.69c.59-4.72,5.1-13.19,10.44-13.19,2.75,0,4.32,2.89,4.14,5.51a5.15,5.15,0,0,1-.29,1.26Z" transform="translate(-115.98 -99.44)"/><path class="cls-4" d="M321.29,364.72c-.38,4.18-3.83,8.56-7.08,11.52a34.46,34.46,0,0,0-1,5.24,10.77,10.77,0,0,0,0,1.11c0,1.5.35,2.68,1.38,2.68,2.57,0,5.15-5.29,6.56-8.21a11.34,11.34,0,0,1,.9-1.76.6.6,0,0,1,.37-.12c.29,0,.45.19.57.45l-.8,1.62h0c-2,4.21-4.77,10-8.23,10-3.05,0-3.85-2.87-3.85-5.55,0-.43,0-.87,0-1.27v0c.38-4.47,3.69-19.28,9.2-19.28C320.91,361.19,321.38,363.38,321.29,364.72Zm-6.56,9.52c1.29-1.15,5.1-5.62,5.43-9.19.09-.8,0-2-.49-2C318.66,363.05,316.35,367.87,314.73,374.24Z" transform="translate(-115.98 -99.44)"/><path class="cls-4" d="M323.92,365.16c1.08,0,2.07.5,2.07,1.77a11.28,11.28,0,0,1-1.11,3.67c-.28.7-.58,1.43-.84,2.18,2.42,3.62,4.56,7.62,4.61,9.81a59.76,59.76,0,0,0,3.62-6.4.75.75,0,0,1,.07-.12l.19-.37h0c.14-.31.24-.52.59-.52a.68.68,0,0,1,.61.47l-.14.28-.07.07c-1.36,2.78-4.28,8.61-6.77,10.49a10.66,10.66,0,0,1-5.55,1.67c-2.07,0-3.69-.75-3.55-2.37a1.21,1.21,0,0,1,1-1c.38,0,.38.43.35.8,0,1,1.08,1.18,2,1.13,2.49-.09,3.55-1.69,3.65-4.28a14,14,0,0,0-2.12-6.23l-1,2.33-.85-.31,1.24-2.94a9.06,9.06,0,0,1-1.85-5.33,5,5,0,0,1,1.74-4A3.31,3.31,0,0,1,323.92,365.16Zm-.38,6.14c.59-1.39,1.42-3.48,1.18-4h0c-.09-.18-.18-.28-.3-.3-.54-.1-1.41,1.81-1.41,3.48a3.42,3.42,0,0,0,.28,1.39Z" transform="translate(-115.98 -99.44)"/><path class="cls-4" d="M355.92,376.1a1.31,1.31,0,0,1-.59.21.63.63,0,0,1-.49-.28,4.81,4.81,0,0,0,.21-1c.07-1.6-.56-3.59-2.28-3.59-3.32,0-7,8.53-7.2,11.28-.07.9,0,2.12,1.13,2.12,2,0,4.47-4.49,5.65-6.8a3.83,3.83,0,0,0,.33-1.38c-.05-.43.44-.55.91-.57,1.86.17,2.47.92,2.57,1.91a14,14,0,0,1-.5,3.24c-.12.64-.73,4.33.45,3.27,1.53-1.53,3.48-5.06,4.7-7.38a21.16,21.16,0,0,1,1-1.91.87.87,0,0,1,.35-.07.64.64,0,0,1,.57.45l-.24.51c-1.29,2.62-4,8.21-6.25,10a4.12,4.12,0,0,1-2.43.92c-2.23,0-2.42-3.67-2.18-5.24a1.77,1.77,0,0,1,0-.24c-1.69,2.8-4.11,5.57-6.75,5.57-2.47,0-3.27-1.85-3.27-4a5.55,5.55,0,0,1,0-.69c.59-4.72,5.1-13.19,10.44-13.19,2.75,0,4.32,2.89,4.14,5.51a5.65,5.65,0,0,1-.29,1.26Z" transform="translate(-115.98 -99.44)"/><path class="cls-4" d="M364.9,376.05c.38-.52.73-1.15,1.15-1.76,1.67-2.64,3.62-5.62,6.12-5.62,1.74,0,2.23,1.24,2.09,2.94a26.92,26.92,0,0,1-1.72,6.23,33.71,33.71,0,0,0-1.53,5.43c0,.63,0,1.81.54,1.81,1.37,0,5.39-7.71,6.1-9.08a.37.37,0,0,1,.07-.14l.09-.18c.14-.29.23-.5.56-.5a.63.63,0,0,1,.59.45,15.48,15.48,0,0,0-.75,1.48c-1.86,3.69-4.89,9.87-7.81,9.87-2.16,0-2.89-1.36-2.89-3.22,0-.18,0-.47,0-.68a39.43,39.43,0,0,1,2.43-8.16,24.84,24.84,0,0,0,1.24-3.71c0-.31,0-.43-.21-.43-1.69,0-5.22,6.09-6.51,8.28v0l-.38.66h0a16.83,16.83,0,0,0-1.05,4.53,6.19,6.19,0,0,0,0,.73,6,6,0,0,0,.21,1.63,1,1,0,0,1,.08.32c0,.26-.22.33-.52.33-2.28,0-2.87-2-2.87-3.92,0-.31,0-.64.05-1a40.93,40.93,0,0,1,1.29-6.58,31.65,31.65,0,0,0,.89-4.28,5,5,0,0,0-.09-1.18,3.62,3.62,0,0,1-.05-.4c0-.42.45-.56.9-.56,2.37,0,2.79,1.72,2.68,3.27a13.9,13.9,0,0,1-.47,2.49C365,375.46,365,375.77,364.9,376.05Z" transform="translate(-115.98 -99.44)"/><path class="cls-4" d="M385.17,383.34c0-.28,0-.61,0-1a5,5,0,0,1,.1-1c-1.74,2.89-4.19,5.93-6.92,5.93-2.46,0-3.29-1.84-3.29-3.93a6.19,6.19,0,0,1,0-.75c.58-4.73,5.1-13.19,10.44-13.19a3.53,3.53,0,0,1,2.18.73l.24-.9c.68-3,1.29-5.48,1.36-6.44a4.72,4.72,0,0,0-.09-1.18,2.37,2.37,0,0,1-.05-.42c0-.42.45-.54.89-.54,2.45,0,2.83,1.65,2.69,3.27-.12,1.43-1,5-1.86,8.84-.12.63-.38,1.55-.61,2.56a41.46,41.46,0,0,0-1.56,8.3,3.59,3.59,0,0,0,.05.76c.1.68.4,1,.85,1a4.21,4.21,0,0,0,2.47-1.53,31.83,31.83,0,0,0,4-6.65,17.13,17.13,0,0,1,.92-1.79.6.6,0,0,1,.37-.12c.26,0,.43.19.54.45-.3.56-.61,1.29-.94,1.95a43.43,43.43,0,0,1-3.83,6.84c-1.06,1.34-2.35,2.73-4.21,2.85C386.2,387.34,385.17,385.86,385.17,383.34Zm.82-5.48c.33-1.55.73-3.27,1.13-5,.07-.33.19-.62.26-1a1.83,1.83,0,0,0-1.13-.35c-3.32,0-7,8.54-7.2,11.29-.09.89,0,2.11,1.11,2.11,2.11,0,4.75-5,5.85-7.12Z" transform="translate(-115.98 -99.44)"/><path class="cls-4" d="M425.14,363.82h0c-1,6.45-3.24,19.69-3.93,23.21v0c-.58,1.64-1.6,3.29-3.9,3.29a6.13,6.13,0,0,1-.8,0h0c-.56-.21-1.05-.43-.8-1a.7.7,0,0,1,.15-.49,9.16,9.16,0,0,0,.65-1.23c1.09-3.48,1.84-9.52,2.43-14l.16-1.27a57.84,57.84,0,0,1,1.29-7.73,16.91,16.91,0,0,1-5.24,2c-1.86.16-3.39-.64-3.39-2.12a3.94,3.94,0,0,1,.8-2c1.65-2.17,5.18-4.05,6.78-4.78a24,24,0,0,1,9.4-2.3c7.88,0,11.45,6.3,11.45,14.08a38.18,38.18,0,0,1-1.6,9.67c-2.65,7.29-8.84,15.14-16.2,18a22.91,22.91,0,0,1-6.49,1.08,13.42,13.42,0,0,1-7.64-2.28,10.59,10.59,0,0,1-4.16-8.3,14.45,14.45,0,0,1,.59-3.78c1.5-3.93,5.88-7.2,9-7.2,2,0,3.5,1.18,3.5,4a8.41,8.41,0,0,1-.16,1.76v0c-.33.59-.75.49-1,.23,0-.32,0-.65,0-.94,0-2.28-.84-3.24-2-3.24-2,0-4.89,2.7-5.92,5.83a15.38,15.38,0,0,0-.71,4.21,8.26,8.26,0,0,0,2.4,6.21,7.41,7.41,0,0,0,5.41,2,12.44,12.44,0,0,0,6-1.62c4.61-2.77,8.8-9.69,10.94-16.37a37.24,37.24,0,0,0,1.71-10.22c0-6-2.21-10.61-7.61-10.61a21,21,0,0,0-11.88,5,2.72,2.72,0,0,0-.82,1.57c0,.47.49.73,1.43.52a24.41,24.41,0,0,0,4.4-2.16l1-.57a17.89,17.89,0,0,1,1.6-.82,5.2,5.2,0,0,1,1.7-.4c1.36,0,1.59,1.22,1.5,2.89Z" transform="translate(-115.98 -99.44)"/><path class="cls-4" d="M454.24,371.63a3.62,3.62,0,0,0,.07-.66,1.46,1.46,0,0,1,.05-.44c.12-.4.54-.45,1-.33,1.29.47,1.88,1,1.88,1.88a5.92,5.92,0,0,1-.31,1.6,58.55,58.55,0,0,0-1.95,8.6c0,.31-.05.71-.05,1,0,1.1.21,1.83.73,1.85,1.32,0,4.05-5.17,5.57-8.09.4-.75.71-1.33.94-1.71a.94.94,0,0,1,.36-.12c.23,0,.42.19.59.47l-.26.49c-1.84,3.81-5.51,10.92-8.23,10.92-2.19,0-2.89-1.89-2.89-4.24,0-.37,0-.77,0-1.15a40.47,40.47,0,0,1,2.14-9l.33-1.08Zm4.7-4.47a1.92,1.92,0,0,1-1.95,1.67c-.75,0-1.41-.61-1.36-1.9.09-1,.75-2.14,1.64-2.14a1.53,1.53,0,0,1,1.23.8A2.79,2.79,0,0,1,458.94,367.16Z" transform="translate(-115.98 -99.44)"/><path class="cls-4" d="M465.2,376.05c.37-.52.73-1.15,1.15-1.76,1.67-2.64,3.62-5.62,6.11-5.62,1.74,0,2.24,1.24,2.1,2.94a27.43,27.43,0,0,1-1.72,6.23,33.71,33.71,0,0,0-1.53,5.43c0,.63,0,1.81.54,1.81,1.37,0,5.39-7.71,6.09-9.08a.61.61,0,0,1,.07-.14l.1-.18c.14-.29.23-.5.56-.5a.63.63,0,0,1,.59.45,15.48,15.48,0,0,0-.75,1.48c-1.86,3.69-4.89,9.87-7.81,9.87-2.16,0-2.89-1.36-2.89-3.22,0-.18,0-.47,0-.68a38.79,38.79,0,0,1,2.42-8.16,24.06,24.06,0,0,0,1.25-3.71c0-.31-.05-.43-.21-.43-1.7,0-5.22,6.09-6.52,8.28v0l-.37.66h0a16.84,16.84,0,0,0-1.06,4.53c0,.26,0,.5,0,.73a6,6,0,0,0,.21,1.63.93.93,0,0,1,.07.32c0,.26-.21.33-.52.33-2.28,0-2.86-2-2.86-3.92,0-.31,0-.64,0-1a42.08,42.08,0,0,1,1.3-6.58,31.65,31.65,0,0,0,.89-4.28,6.29,6.29,0,0,0-.09-1.18,2.17,2.17,0,0,1-.05-.4c0-.42.45-.56.89-.56,2.38,0,2.8,1.72,2.68,3.27a13.9,13.9,0,0,1-.47,2.49C465.34,375.46,465.24,375.77,465.2,376.05Z" transform="translate(-115.98 -99.44)"/><path class="cls-4" d="M482.55,371.94a7.36,7.36,0,0,1,2-1.39,5.37,5.37,0,0,1,2.25-.54c1.56,0,2.54,1.1,2.45,2.87-.38,3.34-3.67,7.1-7,7.69.31.87,2.14,5.15,3.67,5.26.85.1,2-2.37,3.6-5.57.66-1.41,1.48-3.13,2.42-4.91.33-.12.71-.15.89.35-.89,1.81-1.66,3.53-2.32,4.94-1.72,3.59-3,6.3-4.45,6.65-2.56.49-5.12-2.87-6-5a19.65,19.65,0,0,0-.31,2.24c0,.28-.05.51-.05.75a5.25,5.25,0,0,0,.24,1.62v0a1.18,1.18,0,0,1,.07.35c0,.21-.19.33-.54.33-2.26,0-2.87-2.14-2.87-4.19,0-.33,0-.65,0-1a105.32,105.32,0,0,1,2.42-11.62c.84-3.6,1.6-6.87,1.69-8a5.26,5.26,0,0,0-.09-1.18,2.2,2.2,0,0,1-.05-.44c.05-.43.42-.52.89-.52,2.43,0,2.83,1.65,2.69,3.27A58.27,58.27,0,0,1,482.55,371.94Zm-.66,2.39c-.42,1.65-.87,3.23-1.22,4.82,2.44-.44,5.05-4.84,5.05-6.67,0-.45-.16-.73-.51-.73a2.87,2.87,0,0,0-1.2.47A7.58,7.58,0,0,0,481.89,374.33Z" transform="translate(-115.98 -99.44)"/><path class="cls-4" d="M493.86,365.16c1.08,0,2.07.5,2.07,1.77a11.28,11.28,0,0,1-1.11,3.67c-.28.7-.59,1.43-.85,2.18,2.43,3.62,4.57,7.62,4.61,9.81a58.32,58.32,0,0,0,3.63-6.4.75.75,0,0,1,.07-.12l.18-.37h0c.14-.31.23-.52.59-.52a.68.68,0,0,1,.61.47l-.14.28-.07.07c-1.37,2.78-4.28,8.61-6.77,10.49a10.68,10.68,0,0,1-5.55,1.67c-2.07,0-3.7-.75-3.55-2.37a1.19,1.19,0,0,1,1-1c.37,0,.37.43.35.8,0,1,1.08,1.18,2,1.13,2.49-.09,3.55-1.69,3.64-4.28a14,14,0,0,0-2.11-6.23l-1,2.33-.84-.31,1.24-2.94a9.07,9.07,0,0,1-1.86-5.33,5,5,0,0,1,1.74-4A3.36,3.36,0,0,1,493.86,365.16Zm-.38,6.14c.59-1.39,1.41-3.48,1.18-4h0c-.09-.18-.19-.28-.31-.3-.54-.1-1.41,1.81-1.41,3.48a3.43,3.43,0,0,0,.29,1.39Z" transform="translate(-115.98 -99.44)"/><path class="cls-4" d="M442.89,388.27a65.89,65.89,0,0,1,3.76-11.77c.26-.66.47-1.29.76-1.95a5.32,5.32,0,0,1-.73,0c-.24,0-.66,0-.9,0l-1.6,3.31a4.28,4.28,0,0,1-1-.26c.54-1.08,1.11-2.11,1.63-3.2-2.31-.11-3.11-2-2.94-4,.18-2.14,1.76-4.51,4.11-4.51,1.32,0,1.93.87,1.84,2.42a21.44,21.44,0,0,1-1.23,4.47c0,.09,0,.14-.09.25a6.35,6.35,0,0,0,1.27.1l.8,0c.26,0,.52,0,.73,0a4.15,4.15,0,0,1,1.41.19c.42.19.59.59.59,1.22,0,1.51-1.11,4.14-1.74,5.67-.12.28-.31.66-.4.94a82.22,82.22,0,0,0-3.2,10.42,10.65,10.65,0,0,1,1.83,1.62,3.83,3.83,0,0,1,2.47-3.81A5.22,5.22,0,0,1,452,389a3.69,3.69,0,0,1,3.69,3.86c0,2.14-2,4.63-5.86,5.5a10.55,10.55,0,0,1-1.48.12c-2.95,0-5.28-1.74-5.95-5.27A14.81,14.81,0,0,1,442.89,388.27Zm2.45-15.46a17.2,17.2,0,0,0,1.29-3.93c0-.33,0-.49-.09-.49-.5,0-1.79,1.92-1.91,3.26A.92.92,0,0,0,445.34,372.81Zm2.82,22.83a4.82,4.82,0,0,0-2.33-2.45c.16,1.86,1.06,4,3.17,3.69a4.5,4.5,0,0,0,4.05-4.32c0-1.06-.49-1.91-1.58-1.91a2.61,2.61,0,0,0-.75.12,3.24,3.24,0,0,0-2,3.13,3.81,3.81,0,0,0,.3,1.46l0,0c.19.36,0,.47-.26.66s-.47-.07-.56-.33Z" transform="translate(-115.98 -99.44)"/></g></g></svg>