<svg width="114" height="61" viewBox="0 0 114 61" fill="none" xmlns="http://www.w3.org/2000/svg">
<path d="M54.3964 47.7414C26.1467 48.9456 17.7455 2.37881 61.1651 4.06097" stroke="#38550F" stroke-width="2"/>
<path d="M61.854 47.8397C84.9404 47.9889 104.565 33.0527 108.555 28.7937C92.0094 17.5514 72.0678 1.68331 64.8469 4.44357" stroke="#38550F" stroke-width="2"/>
<path d="M5.32112 1.44879C29.2727 43.8549 86.8216 19.4055 94.3038 25.3911" stroke="#38550F" stroke-width="2"/>
<circle r="0.923037" transform="matrix(0.998842 0.0481191 0.0481191 -0.998842 44.8641 23.365)" fill="#38550F"/>
<path d="M58.1532 23.3652C58.1777 22.856 57.7848 22.4234 57.2756 22.3988C56.7664 22.3743 56.3337 22.7672 56.3092 23.2764C56.2847 23.7856 56.6776 24.2182 57.1868 24.2428C57.696 24.2673 58.1286 23.8744 58.1532 23.3652Z" fill="#38550F"/>
<circle r="0.923037" transform="matrix(0.998842 0.0481191 0.0481191 -0.998842 65.8141 23.365)" fill="#38550F"/>
<circle r="0.923037" transform="matrix(0.998842 0.0481191 0.0481191 -0.998842 80.9664 21.9664)" fill="#38550F"/>
<path d="M68.5007 36.5915L67.6408 36.9056C67.289 36.8923 68.8671 34.3529 67.3282 28.4035C67.3936 26.6733 67.2935 26.6631 67.7791 27.7275C69.468 31.43 68.9773 36.9561 68.5007 36.5915Z" fill="#38550F" stroke="#38550F"/>
<path d="M44.3752 27.4744L45.5206 27.1187C45.9858 27.1466 43.2255 27.1199 45.1234 34.4495C44.9965 36.5641 45.1287 36.5799 44.5108 35.2616C42.3619 30.6759 43.7528 27.0126 44.3752 27.4744Z" fill="#38550F" stroke="#38550F"/>
<path d="M58.4624 40.7498L57.0338 41.0627C56.4663 40.9901 59.3222 37.6369 57.5421 28.9799C57.8543 26.5407 57.6937 26.5109 58.3523 28.0919C60.6431 33.5914 59.1901 41.3387 58.4624 40.7498Z" fill="#38550F" stroke="#38550F"/>
<path d="M80.6364 25.7203L81.9374 25.449C82.4738 25.4656 80.1447 27.7309 82.6666 33.1071C82.6184 34.6639 82.7711 34.6744 81.9996 33.7098C79.3158 30.3543 79.8992 25.3858 80.6364 25.7203Z" fill="#38550F" stroke="#38550F"/>
</svg>
