<svg width="40" height="40" viewBox="0 0 40 40" fill="none" xmlns="http://www.w3.org/2000/svg">
<g clip-path="url(#clip0)">
<path d="M3.22082 37.4803C2.64781 36.1028 3.27018 34.4882 5.06694 32.6838L36.9751 0.636981C38.1894 -0.357207 39.2823 -0.108714 39.6865 0.838055C40.8553 3.5646 32.3456 18.9561 28.5034 22.9957C24.3784 27.3274 21.2667 28.9193 18.9444 27.9308C17.5631 27.3483 15.4552 29.9952 13.9144 31.8641C13.3831 32.5074 12.8178 33.2948 12.2371 34.105C10.3967 36.6702 8.65681 39.0913 6.68725 39.3683C6.63607 39.3759 6.41209 39.3891 6.36091 39.3891C5.41801 39.3872 3.80329 38.8805 3.22082 37.4803ZM19.8209 25.8664C19.9879 25.9386 20.1624 25.9708 20.3655 25.9708C21.1908 25.9708 23.1357 25.3845 26.881 21.4493C30.5069 17.6394 35.385 8.19232 37.0263 3.75438L6.65693 34.2605C5.435 35.4881 5.15802 36.2982 5.29081 36.6189C5.41791 36.9244 6.01941 37.1465 6.36285 37.1465L6.37801 37.1484C7.39876 37.0042 9.21649 34.4712 10.4194 32.7977C11.0303 31.9438 11.628 31.1147 12.1878 30.4374C14.0547 28.1738 16.1703 25.6066 18.5516 25.6066C18.988 25.6046 19.4149 25.6919 19.8209 25.8664Z" fill="#335500"/>
<path d="M13.4798 13.9377C13.9219 13.56 13.9751 12.8904 13.5975 12.4482L5.64373 3.12256C5.26621 2.68052 4.59643 2.6273 4.15428 3.00493C3.71224 3.38245 3.65901 4.05224 4.03471 4.49438L11.9905 13.82C12.368 14.2621 13.0378 14.3152 13.4798 13.9377Z" fill="#335500"/>
<path d="M8.34369 2.37117L14.4912 9.04231C15.6201 10.268 15.863 12.1047 15.0984 13.615C14.8745 14.0552 14.9542 14.5883 15.2976 14.9431L17.1324 16.8689C18.2139 17.9846 19.8323 16.3813 18.7888 15.2467L17.4986 13.8863C18.2689 11.6872 17.787 9.19973 16.197 7.47307L10.0476 0.796336C8.66627 -0.554625 6.97574 1.04494 8.33799 2.36547L8.34369 2.37117Z" fill="#335500"/>
<path d="M35.9961 33.0688L29.0233 25.8057C27.9532 24.8627 26.4087 26.4147 27.4427 27.5058L34.3359 34.6854C35.5996 35.9699 35.8823 36.8104 35.7438 37.1406C35.6128 37.4556 34.9905 37.6814 34.6338 37.6814V38.8407L34.6092 37.6814C33.5447 37.2982 29.9226 33.3991 25.9344 28.8756C24.961 27.6215 23.0882 29.0407 23.999 30.2057C28.1239 34.9055 32.6131 39.7325 34.2809 39.9754C34.3359 39.983 34.5787 40 34.6338 40C35.609 40 37.2787 39.4782 37.8821 38.0362C38.476 36.6188 37.8423 34.9473 35.9961 33.0688Z" fill="#335500"/>
<path d="M16.2538 17.7286C15.5498 16.9317 15.2235 16.5124 14.4874 15.7155C14.1534 15.3493 13.6222 15.2393 13.1649 15.4423C11.6072 16.1367 9.69085 15.7572 8.5486 14.5183L2.4011 7.84511L2.38218 7.82995C1.14885 6.44867 -0.66318 7.86791 0.676383 9.39532L6.84291 16.0893C8.03064 17.3775 9.72311 18.1175 11.4915 18.1175C12.1119 18.1175 12.7191 18.0302 13.3053 17.8576C13.8841 18.4914 14.0396 18.7228 14.5956 19.3528C15.5765 20.3356 17.1153 18.7968 16.2538 17.7286Z" fill="#335500"/>
</g>
<defs>
<clipPath id="clip0">
<rect width="40" height="40" fill="white"/>
</clipPath>
</defs>
</svg>
