<svg width="24" height="30" viewBox="0 0 24 30" fill="none" xmlns="http://www.w3.org/2000/svg">
<path d="M12 16C10.4178 16 8.87103 15.5308 7.55544 14.6518C6.23985 13.7727 5.21447 12.5233 4.60897 11.0615C4.00347 9.59966 3.84504 7.99113 4.15372 6.43928C4.4624 4.88743 5.22433 3.46197 6.34315 2.34315C7.46197 1.22433 8.88743 0.462403 10.4393 0.153721C11.9911 -0.15496 13.5997 0.00346625 15.0615 0.608967C16.5233 1.21447 17.7727 2.23985 18.6518 3.55544C19.5308 4.87103 20 6.41775 20 8C20 10.1217 19.1571 12.1566 17.6569 13.6569C16.1566 15.1571 14.1217 16 12 16ZM12 2C10.8133 2 9.65328 2.3519 8.66658 3.01119C7.67989 3.67047 6.91085 4.60755 6.45673 5.7039C6.0026 6.80026 5.88378 8.00666 6.11529 9.17055C6.3468 10.3344 6.91825 11.4035 7.75736 12.2426C8.59648 13.0818 9.66558 13.6532 10.8295 13.8847C11.9933 14.1162 13.1997 13.9974 14.2961 13.5433C15.3925 13.0892 16.3295 12.3201 16.9888 11.3334C17.6481 10.3467 18 9.18669 18 8C18 6.4087 17.3679 4.88258 16.2426 3.75736C15.1174 2.63214 13.5913 2 12 2V2Z" fill="#65713F"/>
<path d="M19 30H5C3.67392 30 2.40215 29.4732 1.46447 28.5355C0.526784 27.5978 0 26.3261 0 25V21C3.02676e-05 20.8264 0.0452234 20.6559 0.131136 20.5051C0.217048 20.3543 0.340723 20.2285 0.49 20.14L5.49 17.14C5.71559 17.038 5.97098 17.0234 6.20675 17.0989C6.44252 17.1744 6.64192 17.3346 6.76634 17.5486C6.89077 17.7626 6.93139 18.0152 6.88035 18.2574C6.8293 18.4997 6.69021 18.7144 6.49 18.86L2 21.57V25C2 25.7956 2.31607 26.5587 2.87868 27.1213C3.44129 27.6839 4.20435 28 5 28H19C19.7956 28 20.5587 27.6839 21.1213 27.1213C21.6839 26.5587 22 25.7956 22 25V21.57L17.49 18.86C17.3625 18.8024 17.2485 18.7186 17.1554 18.6142C17.0623 18.5097 16.9921 18.3869 16.9495 18.2536C16.9068 18.1204 16.8926 17.9797 16.9077 17.8406C16.9228 17.7015 16.967 17.5671 17.0373 17.4461C17.1077 17.3251 17.2026 17.2203 17.316 17.1383C17.4294 17.0563 17.5587 16.9991 17.6956 16.9702C17.8326 16.9414 17.974 16.9416 18.1108 16.9708C18.2477 17.0001 18.3768 17.0577 18.49 17.14L23.49 20.14C23.643 20.226 23.7707 20.3507 23.8602 20.5017C23.9497 20.6526 23.9979 20.8245 24 21V25C24 26.3261 23.4732 27.5978 22.5355 28.5355C21.5979 29.4732 20.3261 30 19 30V30Z" fill="#65713F"/>
</svg>
