<svg width="31" height="28" viewBox="0 0 31 28" fill="none" xmlns="http://www.w3.org/2000/svg">
<path d="M10 20C8.02219 20 6.08879 19.4135 4.4443 18.3147C2.79981 17.2159 1.51809 15.6541 0.761209 13.8268C0.00433284 11.9996 -0.193701 9.98891 0.192152 8.0491C0.578004 6.10929 1.53041 4.32746 2.92894 2.92894C4.32746 1.53041 6.10929 0.578004 8.0491 0.192152C9.98891 -0.193701 11.9996 0.00433284 13.8268 0.761209C15.6541 1.51809 17.2159 2.79981 18.3147 4.4443C19.4135 6.08879 20 8.02219 20 10C20 12.6522 18.9464 15.1957 17.0711 17.0711C15.1957 18.9464 12.6522 20 10 20ZM10 2C8.41775 2 6.87104 2.4692 5.55544 3.34825C4.23985 4.2273 3.21447 5.47673 2.60897 6.93854C2.00347 8.40035 1.84504 10.0089 2.15372 11.5607C2.4624 13.1126 3.22433 14.538 4.34315 15.6569C5.46197 16.7757 6.88743 17.5376 8.43928 17.8463C9.99113 18.155 11.5997 17.9965 13.0615 17.391C14.5233 16.7855 15.7727 15.7602 16.6518 14.4446C17.5308 13.129 18 11.5823 18 10C18 7.87827 17.1572 5.84344 15.6569 4.34315C14.1566 2.84286 12.1217 2 10 2Z" fill="#667733"/>
<path d="M27 27.74C26.2944 27.7409 25.611 27.4931 25.07 27.04L18.94 21.9C18.638 21.6466 18.3888 21.3361 18.2068 20.9864C18.0247 20.6366 17.9133 20.2544 17.879 19.8617C17.8096 19.0684 18.0581 18.28 18.57 17.67C19.0819 17.06 19.8151 16.6784 20.6084 16.609C21.4017 16.5396 22.19 16.7882 22.8 17.3L28.93 22.44C29.4025 22.8357 29.7416 23.3672 29.9013 23.9624C30.0611 24.5576 30.0337 25.1875 29.8228 25.7665C29.6119 26.3456 29.2279 26.8456 28.7228 27.1987C28.2178 27.5518 27.6163 27.7408 27 27.74ZM20.87 18.6H20.78C20.5816 18.6167 20.3928 18.6922 20.2376 18.8169C20.0824 18.9415 19.9679 19.1097 19.9088 19.2998C19.8498 19.4899 19.8488 19.6933 19.906 19.8839C19.9632 20.0746 20.076 20.2439 20.23 20.37L26.36 25.51C26.4604 25.5948 26.5766 25.659 26.7018 25.6988C26.8271 25.7387 26.9589 25.7534 27.0899 25.7423C27.2208 25.7312 27.3483 25.6943 27.465 25.6339C27.5817 25.5734 27.6854 25.4906 27.77 25.39C27.8544 25.2894 27.9182 25.1732 27.9576 25.0479C27.9971 24.9226 28.0115 24.7908 28 24.66C27.9879 24.5285 27.9498 24.4007 27.888 24.284C27.8262 24.1673 27.7419 24.064 27.64 23.98L21.51 18.83C21.3301 18.6809 21.1037 18.5996 20.87 18.6Z" fill="#667733"/>
<path d="M19 19C18.7664 19.0004 18.5399 18.919 18.36 18.77L16 16.82C15.7958 16.6502 15.6674 16.4063 15.643 16.1419C15.6186 15.8775 15.7003 15.6142 15.87 15.41C16.0398 15.2057 16.2837 15.0773 16.5481 15.0529C16.8125 15.0286 17.0758 15.1102 17.28 15.28L19.62 17.23C19.7213 17.3139 19.805 17.417 19.8663 17.5334C19.9277 17.6497 19.9655 17.777 19.9776 17.908C19.9896 18.039 19.9757 18.171 19.9367 18.2966C19.8977 18.4222 19.8342 18.5389 19.75 18.64C19.6582 18.7503 19.5436 18.8395 19.4142 18.9017C19.2848 18.9638 19.1435 18.9973 19 19Z" fill="#667733"/>
</svg>
