<svg width="32" height="32" viewBox="0 0 32 32" fill="none" xmlns="http://www.w3.org/2000/svg">
<path d="M26 21.1033C24.08 21.1033 22.36 21.9387 21.28 23.21L11.56 18.0885C12.16 16.7446 12.16 15.2554 11.56 13.9115L21.28 8.79001C22.36 10.0613 24.08 10.8967 26 10.8967C29.32 10.8967 32 8.46311 32 5.44835C32 2.4336 29.32 0 26 0C22.68 0 20 2.4336 20 5.44835C20 6.1748 20.16 6.90125 20.44 7.51873L10.72 12.6765C9.6 11.4052 7.92 10.5698 6 10.5698C2.68 10.5698 0 13.0034 0 16.0182C0 19.0329 2.68 21.4665 6 21.4665C7.92 21.4665 9.64 20.6311 10.72 19.3598L20.44 24.4813C20.16 25.0988 20 25.8252 20 26.5516C20 29.5664 22.68 32 26 32C29.32 32 32 29.5664 32 26.5516C32 23.5369 29.32 21.1033 26 21.1033ZM26 1.48922C28.44 1.48922 30.4 3.26901 30.4 5.48468C30.4 7.70034 28.44 9.48014 26 9.48014C23.56 9.48014 21.6 7.70034 21.6 5.48468C21.6 3.26901 23.56 1.48922 26 1.48922ZM6 20.0136C3.56 20.0136 1.6 18.2338 1.6 16.0182C1.6 13.8025 3.56 12.0227 6 12.0227C8.44 12.0227 10.4 13.8025 10.4 16.0182C10.4 18.2338 8.44 20.0136 6 20.0136ZM26 30.5471C23.56 30.5471 21.6 28.7673 21.6 26.5516C21.6 24.336 23.56 22.5562 26 22.5562C28.44 22.5562 30.4 24.336 30.4 26.5516C30.4 28.7673 28.44 30.5471 26 30.5471Z" fill="#335500"/>
</svg>
