<svg width="32" height="32" viewBox="0 0 32 32" fill="none" xmlns="http://www.w3.org/2000/svg">
<path d="M24 0C20.667 0 18.145 2.07882 16 4.25111C13.956 1.94595 11.333 0 8 0C3.30599 0 0 4.28935 0 8.96668C0 11.4759 0.967007 13.2837 2.02599 14.9809L14.459 30.8227C15.855 32.3924 16.118 32.3924 17.514 30.8227L29.975 14.9809C31.22 13.2837 32 11.4759 32 8.96668C32 4.2894 28.694 0 24 0ZM28 14.541L16 29.7578L4 14.4782C2.56502 12.358 2 10.9275 2 8.96668C2 5.31284 4.45501 2.02353 8 1.99269C10.916 1.96718 14.221 5.13212 16 7.51808C17.732 5.21503 21.084 1.99269 24 1.99269C27.451 1.99269 30 5.31284 30 8.96668C30 10.9275 29.553 12.4643 28 14.541Z" fill="#335500"/>
</svg>
